<svg width="515" height="458" viewBox="0 0 515 458" fill="none" xmlns="http://www.w3.org/2000/svg">
<path d="M233.392 425.672C236.216 426.885 240.735 424.921 243.429 424.14C264.143 418.137 283.958 408.966 304.15 401.466C340.906 387.814 378.373 376.654 416.125 366.14C443.172 358.608 470.562 351.289 498.157 345.997C500.204 345.605 502.251 345.221 504.298 344.832C504.399 344.813 506.108 344.552 506.063 344.632C505.686 345.294 503.134 345.765 502.489 345.986C498.804 347.251 495.056 348.344 491.328 349.477C456.48 360.068 421.68 370.689 387.531 383.41C357.157 394.724 327.229 407.249 297.625 420.442C293.407 422.322 289.011 423.956 284.867 425.987C281.455 427.659 291.964 423.279 295.5 421.891C319.081 412.635 343.443 405.385 367.519 397.57C392.605 389.426 417.714 380.512 443.692 375.583C446.583 375.034 448.422 374.453 444.589 376.188C434.824 380.608 424.854 384.533 414.912 388.53C389.327 398.816 363.126 408.611 338.939 421.983C334.102 424.657 338.79 423.367 341.443 422.683C352.168 419.916 362.555 415.473 373.13 412.164C386.049 408.12 399.069 404.42 412.104 400.775C415.195 399.91 418.27 398.961 421.391 398.207C423.066 397.802 421.687 398.183 420.896 398.511C414.401 401.208 407.961 404.045 401.543 406.919C400.059 407.584 386.944 412.2 387.068 413.998C387.123 414.802 409.399 409.02 410.726 408.636C429.108 403.32 447.436 397.908 465.953 393.072" stroke="black" stroke-width="4" stroke-linecap="round" stroke-linejoin="round"/>
<path d="M384.476 103.416C382.286 102.171 381.528 103.451 383.225 102.07C389.465 96.9976 382.927 93.368 377.271 96.6793C377.461 96.0707 377.447 95.4169 377.232 94.8168C377.017 94.2168 376.611 93.7033 376.078 93.3542C375.218 92.9324 374.269 92.7227 373.31 92.7426C372.352 92.7625 371.413 93.0115 370.571 93.4687C365.805 95.2787 361.84 98.7255 359.384 103.192C366.121 100.238 374.498 107.642 370.859 114.12C374.621 112.203 378.665 110.898 382.838 110.254C383.647 110.188 384.419 109.891 385.064 109.399C385.708 108.906 386.198 108.239 386.475 107.477C386.592 106.677 386.463 105.861 386.106 105.137C385.749 104.412 385.181 103.813 384.476 103.419V103.416Z" fill="black"/>
<path d="M263.099 189.672C263.071 189.77 263.064 189.872 263.077 189.972C263.089 190.073 263.121 190.17 263.172 190.258C263.222 190.347 263.289 190.424 263.369 190.486C263.449 190.548 263.541 190.594 263.639 190.62C263.836 190.671 264.045 190.643 264.222 190.543C264.399 190.443 264.53 190.277 264.587 190.082L268.663 180.361L267.259 179.749L263.099 189.672Z" fill="black"/>
<path d="M304.88 206.801C304.445 207.69 305.773 208.473 306.21 207.58L310.593 198.649L309.183 198.033L304.88 206.803V206.801Z" fill="black"/>
<path d="M366.112 103.24C364.927 102.65 363.611 102.376 362.289 102.443C360.968 102.509 359.686 102.915 358.567 103.621C357.448 104.327 356.529 105.309 355.9 106.473C355.27 107.637 354.951 108.943 354.973 110.266C355.66 115.808 362.661 119.128 367.16 117.365C368.292 116.919 369.293 116.196 370.073 115.262C370.853 114.329 371.386 113.215 371.624 112.022C371.821 110.153 371.385 108.271 370.386 106.678C369.386 105.086 367.881 103.875 366.112 103.24Z" fill="white"/>
<path d="M345.172 199.917C342.38 195.74 340.702 192.617 339.38 190.867L335.448 199.885C339.124 199.917 340.523 199.917 345.172 199.917Z" fill="white"/>
<path d="M408.688 152.024C404.601 142.688 395.773 135.47 386.052 131.698C381.643 129.93 376.894 129.173 372.154 129.481C366.495 129.686 360.888 130.636 355.478 132.307C356.887 138.754 356.874 145.43 355.439 151.871C355.773 152.315 355.991 152.832 356.076 153.382C356.195 154.909 356.153 156.444 355.952 157.962C355.649 160.36 355.893 162.795 356.664 165.086C358.471 169.104 360.66 172.938 363.202 176.536C364.895 179.039 366.974 181.257 369.362 183.108C372.644 185.602 375.6 185.382 377.606 181.837C380.052 177.525 379.413 176.33 381.245 170.369C382.416 167.407 384.531 164.913 387.262 163.274C389.994 161.635 393.189 160.942 396.354 161.303C399.519 161.664 402.477 163.059 404.769 165.271C407.061 167.483 408.56 170.388 409.034 173.538C409.265 175.587 409.211 177.658 408.876 179.692C408.283 186.667 406.565 193.5 403.79 199.926H414.207C414.41 199.93 414.604 200.013 414.748 200.156C414.891 200.299 414.974 200.493 414.979 200.696C413.983 185.904 414.633 165.597 408.688 152.024ZM385.992 138.593C381.934 139.793 377.908 141.097 373.917 142.504C372.978 142.836 372.577 141.346 373.507 141.018C377.492 139.612 381.488 138.165 385.582 137.105C385.78 137.05 385.991 137.077 386.169 137.178C386.347 137.279 386.477 137.447 386.531 137.644C386.586 137.841 386.56 138.052 386.458 138.23C386.357 138.408 386.19 138.539 385.992 138.593Z" fill="white"/>
<path d="M304.417 121.068C304.188 121.04 303.956 121.072 303.743 121.162C303.531 121.251 303.346 121.395 303.206 121.579C302.161 122.659 302.061 127.118 304.809 129.674C305.214 127.768 305.509 125.843 305.7 123.903C305.761 122.909 305.427 121.24 304.417 121.068Z" fill="#3342F3"/>
<path d="M316.906 125.579C316.991 125.291 317.025 125.002 316.826 124.849C316.523 124.664 316.175 124.569 315.821 124.574C314.46 124.649 314.096 127.741 314.144 129.117C315.373 128.215 316.329 126.991 316.906 125.579Z" fill="#3342F3"/>
<path d="M333.504 137.148C333.585 136.982 333.625 136.798 333.619 136.613C333.614 136.428 333.563 136.247 333.472 136.086C333.152 135.529 332.49 136.07 332.098 136.388C330.447 137.906 328.883 139.517 327.415 141.213C328.7 140.941 329.925 140.436 331.029 139.724C332.103 139.147 332.969 138.246 333.504 137.15V137.148Z" fill="#3342F3"/>
<path d="M325.48 131.815C325.68 131.412 325.783 130.97 325.785 130.521C325.819 130.349 325.664 130.193 325.515 130.102C325.389 130.052 325.254 130.029 325.118 130.035C324.983 130.041 324.85 130.076 324.729 130.136C322.515 130.94 321.729 134.047 321.819 136.335C323.344 135.103 324.592 133.563 325.48 131.815Z" fill="#3342F3"/>
<path d="M329.556 100.792C319.006 96.1663 307.085 95.7537 296.241 99.639C285.396 103.524 276.449 111.413 271.237 121.686C270.47 123.197 270.202 123.882 267.19 130.789C267.822 130.335 268.535 130.001 269.288 129.809C269.792 129.685 270.318 129.677 270.826 129.783C271.334 129.889 271.811 130.109 272.224 130.424C272.636 130.74 272.972 131.143 273.207 131.606C273.443 132.069 273.572 132.578 273.584 133.097C273.6 133.793 273.405 134.476 273.028 135.06C271.848 137.322 270.396 137.462 268.175 139.617C266.391 141.724 269.932 143.143 271.381 143.807C273.195 144.639 275.712 146.507 274.587 148.823C274.246 149.51 273.694 150.071 273.012 150.423C272.33 150.775 271.553 150.901 270.795 150.781C267.181 150.231 263.776 146.242 263.16 146.15C263.242 146.347 263.346 146.533 263.465 146.709C265.672 150.71 268.274 152.539 268.732 154.941C269.048 156.583 268.214 158.708 266.233 158.518C264.158 158.319 262.514 156.558 259.878 154.756C259.682 154.619 259.169 154.131 258.935 154.282C258.907 154.298 258.907 154.282 259.015 154.424C259.123 154.566 260.03 155.885 260.602 156.81C261.477 158.223 262.892 160.321 262.372 162.077C262.213 162.596 261.936 163.072 261.564 163.467C261.191 163.863 260.733 164.167 260.224 164.358C259.717 164.551 259.172 164.625 258.632 164.576C258.091 164.526 257.569 164.354 257.105 164.072C255.948 163.255 254.866 162.335 253.874 161.324C252.479 164.53 249.631 171.056 249.599 171.129C249.498 171.306 249.471 171.516 249.522 171.713C249.574 171.91 249.701 172.078 249.876 172.183L331.139 207.614C331.316 207.714 331.526 207.741 331.723 207.689C331.92 207.638 332.089 207.511 332.194 207.337L339.371 190.872C338.725 189.825 337.834 188.951 336.775 188.326C335.716 187.701 334.52 187.343 333.291 187.283C331.306 187.251 328.842 187.466 327.422 185.749C326.938 185.169 326.669 184.44 326.659 183.685C326.65 182.93 326.902 182.195 327.372 181.604C329.513 179.639 332.103 179.573 338.421 178.496C337.776 178.319 337.114 178.212 336.447 178.176C334.325 178.08 332.212 177.851 330.12 177.489C328.829 177.398 327.585 176.968 326.513 176.243C326.17 175.936 325.891 175.563 325.694 175.147C325.497 174.732 325.384 174.28 325.363 173.82C325.343 173.36 325.414 172.901 325.572 172.469C325.731 172.037 325.975 171.64 326.288 171.303C326.708 170.852 327.239 170.523 327.827 170.342C331.23 168.968 333.305 170.074 338.318 169.929C338.469 169.929 338.899 169.982 338.794 169.7C338.712 169.471 338.251 169.417 338.041 169.341C336.974 168.952 335.911 168.553 334.851 168.15C333.335 167.573 331.446 167.188 330.743 165.549C330.471 164.924 330.396 164.232 330.53 163.564C330.663 162.896 330.998 162.286 331.489 161.814C332.783 160.586 335.025 160.875 336.664 160.925C340.253 161.001 343.779 161.864 346.995 163.456C348.284 155.461 348.458 153.366 350.233 151.369C350.73 150.96 351.327 150.69 351.963 150.588C352.599 150.485 353.25 150.553 353.851 150.785C353.938 150.808 354.002 150.861 354.08 150.893C354.611 151.094 355.076 151.44 355.424 151.889C357.709 141.693 356.378 131.021 351.659 121.699C346.94 112.377 339.126 104.986 329.556 100.792ZM333.971 139.253C331.872 141.483 328.976 142.793 325.915 142.898C312.931 157.127 302.14 173.212 293.899 190.622C293.47 191.522 292.142 190.736 292.566 189.848C300.714 172.643 311.341 156.726 324.106 142.603C323.318 142.264 322.611 141.76 322.033 141.126C321.455 140.492 321.019 139.741 320.754 138.925L320.719 138.946C320.177 139.32 319.545 139.541 318.888 139.586C318.231 139.631 317.574 139.498 316.986 139.202C314.722 137.374 313.27 134.727 312.945 131.835C311.886 132.457 310.695 132.818 309.47 132.887C308.245 132.957 307.02 132.734 305.898 132.236C302.283 151.547 294.771 169.92 283.82 186.232C283.269 187.054 281.933 186.278 282.488 185.453C293.45 169.139 300.938 150.742 304.485 131.409C300.908 128.682 300.066 123.335 301.884 120.784C302.225 120.294 302.709 119.921 303.269 119.716C303.83 119.511 304.44 119.484 305.017 119.639C306.984 120.188 307.378 122.81 307.204 124.537C306.987 126.604 306.655 128.656 306.21 130.686C307.233 131.219 308.384 131.457 309.535 131.372C310.685 131.287 311.789 130.883 312.722 130.205C312.567 128.86 312.631 127.499 312.913 126.174C313.002 125.599 313.211 125.049 313.526 124.56C313.842 124.07 314.257 123.653 314.745 123.335C315.303 123.063 315.935 122.981 316.545 123.099C317.155 123.218 317.709 123.533 318.125 123.994C319.668 126 316.364 129.49 314.335 130.983C314.619 133.363 315.619 135.601 317.202 137.4C317.477 137.698 317.815 137.924 318.193 138.069C318.974 138.082 319.737 137.84 320.369 137.382C319.702 132.344 322.45 128.542 325.192 128.492C327.024 128.458 327.635 130.283 327.147 131.739C326.092 134.289 324.339 136.49 322.089 138.087C322.255 138.869 322.641 139.587 323.201 140.156C323.761 140.726 324.472 141.125 325.251 141.304C326.932 139.443 328.606 137.531 330.431 135.808C331.106 135.037 332.013 134.507 333.016 134.297C335.293 134.169 335.881 137.48 333.971 139.253Z" fill="#3342F3"/>
<path d="M187.731 151.68C186.877 147.418 185.12 143.389 182.578 139.862C180.037 136.336 176.77 133.394 172.998 131.235C162.063 124.873 147.645 124.182 135.045 125.32C125.932 125.952 117.276 129.552 110.4 135.568C103.702 141.874 92.8361 138.925 91.4553 132.19C91.1662 130.708 91.1098 129.191 91.2881 127.692C91.2834 127.895 91.2009 128.088 91.0576 128.231C90.9143 128.375 90.7213 128.457 90.5187 128.462H63.1623C62.9586 128.46 62.7637 128.378 62.6194 128.235C62.4751 128.091 62.393 127.896 62.3906 127.692C61.1546 136.531 63.0643 145.524 67.7858 153.098C75.2123 164.147 87.1432 170.078 100.334 172.036C100.203 178.601 99.7061 207.377 99.5871 215.198C103.933 217.263 107.857 220.118 111.158 223.618C119.913 217.641 121.601 208.928 121.594 198.282C121.594 185.751 122.599 197.04 121.108 155.864C120.984 154.781 120.984 153.686 121.108 152.603C121.295 151.64 121.83 150.78 122.612 150.188C123.394 149.596 124.367 149.314 125.345 149.396C126.322 149.478 127.234 149.918 127.907 150.633C128.579 151.347 128.963 152.284 128.986 153.265C129.659 156.855 130.422 163.872 130.704 167.392C132.591 165.825 135.011 165.047 137.459 165.219C139.906 165.392 142.192 166.503 143.841 168.319C145.953 164.538 152.39 165.04 154.375 172.455C154.957 174.088 155.369 175.775 155.6 177.493C157.567 196.051 154.84 214.807 147.668 232.036C143.374 242.531 136.787 251.932 128.391 259.553C129.725 265.231 130.712 270.985 131.345 276.783C131.356 276.906 131.325 277.029 131.258 277.133C131.487 277.765 132.313 280.067 132.49 280.582L160.274 280.811C160.274 247.299 160.155 249.01 160.46 248.659C160.632 248.43 159.974 248.888 190.246 230.479C190.466 208.774 190.988 166.941 187.731 151.68Z" fill="white"/>
<path d="M151.827 84.1577C151.893 82.9311 151.629 81.7092 151.062 80.6197C151.007 80.581 150.965 80.5268 150.94 80.464C149.582 79.2509 147.836 78.5609 146.015 78.5175C144.244 78.1619 142.414 78.25 140.686 78.7739C139.945 79.1366 139.329 79.7101 138.914 80.4224C138.498 81.1347 138.303 81.9539 138.352 82.7769C137.948 87.3314 137.937 91.9124 138.32 96.4688C138.5 95.3756 138.943 94.3425 139.611 93.4589C140.28 92.5752 141.153 91.8675 142.156 91.3968C143.159 90.9261 144.261 90.7065 145.368 90.7571C146.475 90.8078 147.553 91.127 148.508 91.6873C150.103 92.8249 151.202 94.5289 151.582 96.4505C151.962 92.3651 152.044 88.2568 151.827 84.1577Z" fill="black"/>
<path d="M92.4055 190.901C87.4706 185.078 78.2259 186.321 73.0001 191.478C70.2226 194.286 68.0566 197.639 66.6385 201.325C64.4904 206.707 62.6424 213.164 61.9737 214.41C57.994 220.592 52.195 225.388 45.3758 228.137C41.3637 229.717 37.0974 230.516 33.5502 233.12C30.2376 235.547 27.8411 239.021 26.7489 242.98C26.1803 244.948 26.2364 247.044 26.9095 248.978C27.5826 250.912 28.8395 252.59 30.5068 253.78C26.8752 255.064 23.8425 257.639 21.9857 261.014C19.05 267.197 22.6888 273.03 27.9077 273.32C26.1613 275.161 24.8642 277.381 24.1177 279.806C23.7059 281.151 23.66 282.581 23.9848 283.95C24.3097 285.318 24.9934 286.575 25.9658 287.592C26.9703 288.409 28.1475 288.987 29.4084 289.281C30.6693 289.576 31.9807 289.58 33.2434 289.293C33.4014 289.268 33.5594 289.231 33.7174 289.199C34.3105 286.108 39.4264 261.33 40.3584 257.561C43.9262 243.157 50.5512 227.864 62.5989 219.112C67.0703 215.863 72.2053 213.645 77.6354 212.615C83.0655 211.586 88.6562 211.771 94.0062 213.158C94.336 213.245 95.2199 213.49 95.5428 213.616C95.7237 203.796 96.8229 196.113 92.4055 190.901ZM90.5048 202.557C90.0498 204.431 88.9344 206.078 87.3634 207.196C85.7925 208.314 83.8711 208.828 81.9517 208.644C79.9286 208.464 78.0428 207.544 76.6546 206.062C75.2665 204.579 74.4734 202.637 74.4267 200.606C74.3112 198.992 74.7631 197.388 75.7042 196.071C76.6454 194.755 78.0167 193.808 79.5815 193.395C81.9446 192.769 84.4508 192.975 86.6805 193.977C88.1775 194.782 89.3652 196.06 90.0572 197.613C90.7493 199.165 90.9067 200.903 90.5048 202.555V202.557Z" fill="black"/>
<path d="M86.6861 193.977C84.949 193.101 82.9804 192.793 81.0588 193.097C79.1372 193.401 77.3598 194.302 75.9781 195.671C75.1373 196.851 74.6231 198.233 74.4873 199.675C74.3515 201.118 74.599 202.571 75.2048 203.887C75.8105 205.204 76.7531 206.337 77.9372 207.172C79.1212 208.007 80.5048 208.515 81.9481 208.644C83.8681 208.828 85.79 208.313 87.3611 207.194C88.9322 206.075 90.0471 204.427 90.5012 202.553C90.9034 200.903 90.747 199.166 90.0567 197.614C89.3664 196.062 88.181 194.783 86.6861 193.977Z" fill="white"/>
<path d="M155.606 177.503C155.945 180.835 154.315 184.393 150.919 184.602C149.769 184.533 148.659 184.155 147.706 183.508C146.753 182.861 145.993 181.968 145.505 180.924C145.221 181.775 144.704 182.529 144.013 183.101C143.322 183.673 142.485 184.041 141.596 184.162C140.707 184.284 139.802 184.154 138.983 183.788C138.164 183.423 137.464 182.835 136.961 182.092C136.725 183.942 136.97 185.824 137.673 187.551C138.109 188.44 136.778 189.221 136.341 188.33C134.259 184.096 136.551 179.628 134.703 176.174C134.375 175.647 133.91 175.218 133.357 174.933C132.805 174.649 132.185 174.52 131.565 174.56C130.945 174.6 130.347 174.807 129.836 175.16C129.324 175.513 128.918 175.998 128.66 176.564C127.449 179.406 126.826 182.464 126.828 185.554C126.734 186.534 125.191 186.541 125.285 185.554C125.681 181.462 125.8 177.901 127.936 174.869C128.348 174.342 128.864 173.905 129.452 173.587C130.039 173.268 130.687 173.074 131.353 173.017C132.019 172.96 132.69 173.04 133.324 173.254C133.957 173.468 134.54 173.811 135.035 174.26C134.928 173.762 134.766 173.277 134.552 172.815C134.135 171.92 135.468 171.139 135.883 172.036C136.581 174.166 136.998 176.381 137.119 178.62C137.2 179.515 137.543 180.366 138.104 181.067C138.665 181.769 139.42 182.29 140.275 182.566C141.056 182.765 141.883 182.654 142.585 182.258C143.286 181.862 143.807 181.21 144.04 180.438C144.619 178.538 144.743 176.522 144.404 174.565C144.24 173.075 143.908 171.608 143.415 170.193C143.379 170.098 143.362 169.997 143.365 169.895C143.369 169.794 143.392 169.694 143.434 169.601C143.476 169.509 143.535 169.426 143.609 169.356C143.684 169.287 143.771 169.233 143.866 169.197C143.961 169.161 144.062 169.144 144.163 169.148C144.265 169.151 144.365 169.174 144.457 169.216C144.55 169.258 144.633 169.318 144.702 169.392C144.772 169.466 144.826 169.553 144.862 169.648C145.772 172.323 146.179 175.144 146.062 177.967C146.13 178.059 146.174 178.167 146.192 178.281C146.342 179.454 146.86 180.549 147.672 181.408C148.483 182.268 149.546 182.848 150.708 183.065C151.281 183.054 151.839 182.884 152.32 182.573C152.8 182.261 153.185 181.822 153.429 181.304C153.979 180.117 154.196 178.803 154.056 177.503C154.015 176.509 155.558 176.516 155.6 177.503C155.356 175.787 154.946 174.1 154.374 172.465C153.929 170.781 153.101 169.223 151.954 167.912C151.461 167.287 150.826 166.79 150.101 166.461C149.376 166.133 148.583 165.982 147.788 166.023C146.994 166.064 146.22 166.295 145.533 166.696C144.846 167.097 144.264 167.657 143.838 168.329C142.189 166.512 139.903 165.401 137.455 165.228C135.008 165.055 132.588 165.834 130.7 167.401C130.419 163.893 129.658 156.867 128.983 153.274C128.96 152.294 128.576 151.356 127.903 150.642C127.231 149.928 126.319 149.487 125.341 149.405C124.364 149.323 123.391 149.605 122.609 150.197C121.827 150.789 121.291 151.65 121.105 152.613C120.962 154.967 121.007 157.328 121.24 159.675C122.523 194.355 121.579 188.096 121.589 198.291C121.589 208.935 119.91 217.651 111.153 223.628C120.228 233.09 125.429 246.757 128.39 259.581C136.786 251.96 143.373 242.559 147.667 232.064C154.86 214.834 157.591 196.068 155.606 177.503Z" fill="white"/>
<path d="M148.502 91.6871C147.43 91.0652 146.209 90.7452 144.969 90.7609C143.73 90.7767 142.517 91.1276 141.461 91.7764C140.404 92.4253 139.543 93.348 138.969 94.4466C138.394 95.5452 138.128 96.7788 138.197 98.0166C138.377 99.2618 138.927 100.424 139.777 101.352C140.626 102.279 141.736 102.929 142.96 103.217C144.623 103.61 146.37 103.414 147.903 102.662C149.437 101.911 150.662 100.65 151.369 99.0952C151.724 97.7156 151.638 96.2596 151.124 94.9312C150.61 93.6027 149.693 92.4684 148.502 91.6871Z" fill="#7AF264" fill-opacity="0.7"/>
<path d="M128.4 259.562C123.857 239.672 113.783 218.478 94.016 213.158C88.6658 211.772 83.0753 211.588 77.6454 212.617C72.2154 213.646 67.0805 215.864 62.6086 219.112C48.7175 229.204 42.0627 247.854 38.7926 264.724C38.6592 265.187 38.571 265.662 38.5293 266.142C39.1381 263.394 40.4563 260.854 42.3526 258.775C44.2489 256.695 46.657 255.149 49.337 254.29C52.017 253.432 54.8752 253.29 57.6269 253.88C60.3786 254.47 62.9276 255.771 65.02 257.653C66.8861 259.362 68.3367 261.475 69.2611 263.83C70.1855 266.186 70.5591 268.722 70.3534 271.244C70.3122 273.74 70.5137 292.218 70.5687 298.953C73.2084 293.167 76.2636 287.58 79.7103 282.236C85.8681 272.515 94.8129 261.738 106.142 259.759C108.689 259.256 111.311 259.261 113.856 259.777C116.401 260.292 118.819 261.307 120.969 262.762C125.138 265.652 128.362 269.707 130.237 274.42C130.601 275.336 130.938 276.252 131.279 277.154C131.346 277.05 131.377 276.927 131.366 276.804C130.736 271.001 129.746 265.242 128.4 259.562Z" fill="#3342F3"/>
<path d="M119.669 97.0958C121.071 97.2767 122.479 97.4118 123.885 97.5401C125.227 97.7462 126.587 97.8149 127.941 97.7484C132.482 97.2355 133.109 91.1464 126.01 90.8075C123.461 90.6525 120.941 90.177 118.511 89.3922C118.66 88.8174 121.488 88.7694 123.32 88.9571C124.543 89.0861 125.78 89.0219 126.984 88.7671C127.619 88.5427 128.141 88.0763 128.434 87.4694C128.727 86.8625 128.769 86.1642 128.55 85.5267C127.449 82.268 120.65 81.6337 117.084 81.4047C110.061 80.8608 102.998 81.6582 96.2725 83.7543C77.0662 89.8571 64.4277 107.799 62.3805 127.695C62.3829 127.898 62.465 128.093 62.6093 128.237C62.7536 128.381 62.9485 128.462 63.1522 128.464H90.5177C90.7203 128.46 90.9133 128.377 91.0566 128.234C91.1999 128.09 91.2825 127.897 91.2871 127.695C91.5614 122.966 93.5021 118.488 96.7648 115.054C98.0885 113.762 99.7418 112.853 100.841 114.323C101.986 115.837 104.713 122.854 108.982 120.048C113.532 117.051 106.921 110.618 109.669 107.655C110.88 106.588 112.46 106.034 114.073 106.112C120.125 106.02 122.775 108.557 126.093 108.5C129.095 108.64 131.628 105.55 129.711 103.13C128.814 102.013 127.663 101.126 126.354 100.542C124.428 99.6622 122.404 99.0164 120.324 98.6186C119.793 98.5179 118.35 98.5591 118.325 97.7691C118.3 96.979 119.127 97.0202 119.669 97.0958ZM105.432 93.0677C106.007 92.2731 107.354 93.0471 106.763 93.8463C106.319 94.4438 105.998 95.1234 105.819 95.8457C105.639 96.568 105.605 97.3187 105.717 98.0545C105.83 98.7902 106.087 99.4964 106.474 100.132C106.861 100.768 107.37 101.321 107.972 101.758C108.778 102.331 108.011 103.657 107.193 103.089C106.415 102.55 105.751 101.862 105.24 101.065C104.73 100.267 104.382 99.3764 104.219 98.4438C104.055 97.5112 104.078 96.5554 104.286 95.6318C104.494 94.7081 104.884 93.835 105.432 93.0631V93.0677ZM67.5902 117.571C67.7528 116.593 69.239 117.01 69.0787 117.981L68.0917 123.957C67.9291 124.935 66.4429 124.519 66.6032 123.548L67.5902 117.571Z" fill="#7AF264" fill-opacity="0.7"/>
<path d="M166.316 73.5708C166.38 73.4613 166.417 73.3376 166.422 73.2106C166.427 73.0836 166.401 72.9573 166.345 72.843C166.29 72.7286 166.207 72.6299 166.104 72.5555C166.001 72.4811 165.881 72.4334 165.755 72.4166C165.603 72.3958 165.449 72.4204 165.312 72.4872C165.174 72.5541 165.06 72.6602 164.983 72.7922C162.088 77.5562 159.229 82.3425 156.407 87.1505C156.316 87.3262 156.295 87.5303 156.35 87.7206C156.405 87.9109 156.531 88.0728 156.702 88.1728C156.873 88.2729 157.076 88.3034 157.268 88.258C157.461 88.2126 157.629 88.0948 157.737 87.9291L166.316 73.5708Z" fill="black"/>
<path d="M162.116 89.4519L170.902 82.8246C171.685 82.2338 170.918 80.8941 170.126 81.4918L161.337 88.1328C160.556 88.7099 161.323 90.0496 162.116 89.4519Z" fill="black"/>
<path d="M132.497 280.591C131.778 278.516 131.02 276.455 130.223 274.408C128.57 270.259 125.874 266.607 122.396 263.806C114.04 257.226 103.513 258.472 94.9481 264.852C84.8286 272.391 75.435 288.192 70.555 299.28C70.555 300.64 70.6855 319.998 70.6878 320.513H160.282V280.813L132.497 280.591ZM109.501 297.013C106.521 304.341 103.778 311.764 101.278 319.269C101.251 319.367 101.205 319.458 101.143 319.538C101.081 319.618 101.003 319.685 100.915 319.735C100.827 319.785 100.73 319.817 100.63 319.83C100.529 319.842 100.427 319.835 100.33 319.807C100.132 319.753 99.9644 319.623 99.863 319.445C99.7617 319.268 99.7351 319.057 99.7891 318.859C102.288 311.353 105.032 303.93 108.015 296.603C108.386 295.694 109.877 296.097 109.501 297.013ZM118.89 270.238L114.365 268.647C113.433 268.319 113.836 266.831 114.775 267.16L119.302 268.75C120.237 269.075 119.833 270.566 118.895 270.238H118.89ZM136.55 305.3C135.991 310.007 134.821 314.62 133.07 319.024C133.043 319.122 132.998 319.214 132.936 319.294C132.875 319.375 132.798 319.442 132.71 319.493C132.622 319.543 132.525 319.576 132.424 319.589C132.324 319.602 132.222 319.596 132.124 319.569C132.026 319.543 131.934 319.498 131.854 319.436C131.774 319.374 131.706 319.297 131.656 319.209C131.605 319.121 131.572 319.025 131.559 318.924C131.546 318.824 131.553 318.721 131.579 318.624C136.047 306.347 136.96 296.466 131.808 282.517C131.46 281.583 132.967 281.187 133.294 282.107C136.222 289.466 137.34 297.42 136.555 305.3H136.55Z" fill="#7AF264" fill-opacity="0.7"/>
<path d="M425.907 266.92C417.454 259.954 401.266 246.164 394.346 237.633C379.509 246.858 365.842 255.615 357.094 270.838C367.205 282.988 380.126 292.488 394.737 298.515C394.869 298.551 395.008 298.551 395.14 298.517C395.272 298.482 395.392 298.412 395.489 298.316C403.004 290.952 423.227 270.706 425.907 268.01C426.051 267.866 426.132 267.67 426.132 267.465C426.132 267.261 426.051 267.065 425.907 266.92Z" fill="#7AF264" fill-opacity="0.7"/>
<path d="M271.384 143.812C269.93 143.148 266.39 141.728 268.178 139.621C268.994 138.828 269.889 138.121 270.85 137.512C276.308 133.619 272.453 127.122 267.186 130.791C266.17 131.498 265.222 132.371 264.386 133.056C260.003 136.209 256.043 139.911 252.601 144.071C250.961 146.223 250.016 148.825 249.89 151.528C249.765 154.232 250.465 156.909 251.898 159.205C252.659 160.19 253.531 161.078 254.502 161.855C255.301 162.675 256.178 163.414 257.12 164.067C257.82 164.49 258.644 164.661 259.455 164.55C260.266 164.44 261.014 164.055 261.576 163.46C261.949 163.065 262.226 162.591 262.387 162.072C262.913 160.32 261.491 158.223 260.616 156.805C260.044 155.878 259.149 154.572 259.029 154.419C258.91 154.266 258.922 154.293 258.949 154.277C259.178 154.126 259.696 154.616 259.893 154.751C262.57 156.583 264.175 158.314 266.248 158.514C268.228 158.704 269.062 156.579 268.746 154.937C268.205 153.297 267.294 151.804 266.083 150.574C264.995 149.177 264.022 147.696 263.172 146.145C263.79 146.237 267.216 150.233 270.807 150.776C271.565 150.897 272.342 150.772 273.025 150.42C273.707 150.067 274.259 149.506 274.599 148.818C275.714 146.505 273.195 144.638 271.384 143.812ZM258.837 139.69C258.946 139.705 259.05 139.745 259.141 139.806C259.232 139.868 259.307 139.949 259.362 140.045C259.959 141.073 260.612 142.067 261.194 143.097C261.285 143.273 261.305 143.477 261.25 143.667C261.196 143.858 261.07 144.02 260.899 144.12C260.728 144.22 260.525 144.25 260.332 144.205C260.139 144.159 259.971 144.042 259.863 143.876C259.238 142.866 258.636 141.838 258.031 140.823C257.961 140.696 257.928 140.552 257.936 140.407C257.944 140.261 257.994 140.122 258.078 140.003C258.162 139.885 258.278 139.792 258.412 139.737C258.547 139.682 258.694 139.665 258.837 139.69ZM253.513 153.686L251.805 151.325C251.221 150.521 252.558 149.752 253.135 150.547L254.843 152.905C255.427 153.711 254.09 154.481 253.513 153.684V153.686Z" fill="white"/>
<path d="M108.014 296.603C105.032 303.931 102.289 311.351 99.788 318.86C99.7337 319.057 99.7599 319.268 99.8611 319.446C99.9622 319.624 100.13 319.755 100.327 319.809C100.525 319.863 100.736 319.837 100.914 319.736C101.092 319.635 101.222 319.467 101.277 319.27C103.775 311.772 106.544 304.282 109.5 297.013C109.875 296.097 108.385 295.694 108.014 296.603Z" fill="#7AF264" fill-opacity="0.7"/>
<path d="M414.982 200.682C414.976 200.479 414.893 200.287 414.749 200.144C414.606 200.001 414.413 199.918 414.211 199.912H403.794C401.841 204.426 398.977 208.488 395.383 211.845C391.788 215.201 387.539 217.779 382.902 219.418C373.632 222.279 362.39 219.854 352.262 208.987C349.653 206.16 347.279 203.125 345.163 199.912C345.163 199.912 336.745 199.894 335.439 199.88C335.21 200.405 333.046 205.376 332.194 207.323C332.089 207.497 331.92 207.624 331.723 207.677C331.526 207.729 331.316 207.702 331.139 207.602C331.139 207.602 329.783 207.013 329.224 206.766C330.166 212.423 331.693 217.966 333.781 223.307C324.603 231.196 312.088 243.379 307.236 254.451C301.989 267.705 298.971 281.736 298.305 295.975C298.306 296.179 298.388 296.374 298.532 296.518C298.676 296.663 298.87 296.745 299.074 296.747H347.979C348.148 296.745 348.312 296.689 348.446 296.587C348.58 296.484 348.677 296.341 348.724 296.179C349.719 287.506 352.432 279.118 356.703 271.505C360.975 263.891 366.721 257.205 373.604 251.836C380.179 246.631 387.105 241.888 394.334 237.638C402.578 232.716 409.583 226.712 412.883 217.749C413.897 214.939 414.57 212.017 414.886 209.047C415.072 206.262 415.104 203.469 414.982 200.682ZM326.531 240.986C325.023 242.634 323.68 244.425 322.521 246.335C322.414 246.503 322.246 246.624 322.052 246.672C321.907 246.706 321.756 246.698 321.616 246.648C321.476 246.599 321.353 246.51 321.262 246.393C321.171 246.276 321.116 246.135 321.103 245.987C321.09 245.839 321.12 245.69 321.189 245.559C322.385 243.515 323.812 241.615 325.441 239.896C326.117 239.167 327.204 240.26 326.531 240.988V240.986ZM345.575 215.764C345.307 216.359 341.508 218.283 335.373 223.93C334.686 224.566 333.678 223.621 334.203 222.945C337.427 219.952 340.879 217.214 344.528 214.756C345.218 214.291 345.852 215.145 345.575 215.764Z" fill="#7AF264" fill-opacity="0.7"/>
<path d="M79.303 328.425C77.5534 328.425 75.8039 328.388 74.0566 328.345C72.9826 328.317 71.8811 328.246 70.7979 328.285C70.7338 325.695 70.2987 273.731 70.3399 271.235C70.4389 268.635 70.0394 266.04 69.1629 263.59C67.9927 260.621 65.9607 258.07 63.3284 256.265C60.6961 254.461 57.5839 253.485 54.3924 253.464C52.2741 253.45 50.1741 253.856 48.214 254.659C45.7735 255.664 43.6127 257.246 41.9162 259.267C40.2197 261.289 39.0381 263.692 38.4723 266.27C34.1923 285.194 29.6306 311.536 26.7063 328.656C23.1601 327.999 19.5059 328.235 16.0738 329.343C10.1335 331.427 10.4381 337.067 14.0586 338.29C15.9089 338.792 16.0532 338.648 24.9453 338.831C23.3217 346.335 21.4187 348.382 22.9117 350.837C23.4227 351.668 24.2221 352.282 25.157 352.561C26.0919 352.84 27.0968 352.764 27.9795 352.349C29.0464 351.713 30.0237 350.937 30.8855 350.043C37.2678 344.386 43.4553 336.733 46.2743 339.529C47.9254 341.689 48.901 346.903 50.8864 350.711C51.207 351.464 51.7882 352.076 52.5233 352.435C53.2585 352.794 54.0984 352.877 54.8893 352.667C55.8201 352.358 56.6602 351.824 57.3346 351.112C58.009 350.4 58.4969 349.532 58.7548 348.586C59.5953 345.497 59.8243 340.883 61.0723 339.557C62.6832 338.691 64.533 338.377 66.3393 338.661C68.8056 338.735 77.8992 339.064 79.974 339.067C81.1682 339.078 82.3313 338.685 83.2739 337.952C84.2165 337.218 84.8831 336.188 85.1654 335.027C85.2736 334.197 85.2024 333.353 84.9564 332.553C84.7105 331.753 84.2956 331.015 83.7398 330.389C83.1839 329.763 82.5002 329.264 81.7348 328.925C80.9693 328.586 80.14 328.416 79.303 328.425ZM51.2207 331.306C50.2406 332.057 49.3223 332.884 48.4727 333.779C47.7857 334.498 46.6957 333.403 47.3827 332.687C48.3307 331.702 49.3567 330.795 50.449 329.973C51.2368 329.375 52.0016 330.713 51.2207 331.306ZM36.3815 330.807L32.2458 333.097C31.3756 333.575 30.597 332.242 31.4672 331.764L35.6029 329.474C36.4731 328.995 37.2517 330.328 36.3815 330.807ZM38.5685 293.193C39.3242 290.995 39.8784 288.732 40.2241 286.433C40.373 285.455 41.8569 285.872 41.7126 286.843C41.3651 289.142 40.8102 291.405 40.0547 293.603C39.7341 294.538 38.2433 294.134 38.5685 293.193Z" fill="white"/>
<path d="M350.286 308.073C336.735 301.752 321.435 300.236 306.907 303.777C302.925 304.778 299.065 306.214 295.397 308.06C295.248 308.142 295.13 308.27 295.061 308.426C295.01 308.543 294.989 308.671 294.999 308.798C295.009 308.925 295.05 309.047 295.119 309.155C295.188 309.262 295.282 309.351 295.393 309.413C295.505 309.475 295.629 309.509 295.757 309.512H349.897C350.618 309.512 351.003 308.41 350.286 308.073Z" fill="black"/>
<path d="M436.392 270.632C425.97 281.075 424.175 285.352 417.614 291.89C412.208 297.337 405.676 301.534 398.476 304.188C398.294 304.221 398.128 304.318 398.009 304.46C397.89 304.603 397.824 304.783 397.824 304.969C397.822 305.154 397.884 305.334 398 305.479C398.115 305.623 398.277 305.724 398.458 305.763C406.365 308.85 417.779 305.841 425.984 293.736C430.585 286.751 434.477 279.325 437.603 271.567C437.924 270.811 437.063 269.961 436.392 270.632Z" fill="black"/>
<path d="M269.583 101.101C270.35 101.717 271.45 100.643 270.676 100.011L261.458 92.6123C260.693 91.9986 259.594 93.0703 260.368 93.7046L269.583 101.101Z" fill="black"/>
<path d="M409.039 173.525C408.568 170.372 407.071 167.463 404.779 165.248C402.486 163.034 399.527 161.638 396.36 161.276C393.193 160.915 389.996 161.609 387.264 163.251C384.532 164.892 382.418 167.39 381.25 170.355C379.466 176.158 380.043 177.537 377.611 181.823C375.593 185.382 372.619 185.568 369.367 183.094C366.978 181.243 364.899 179.025 363.207 176.522C360.842 173.174 358.773 169.627 357.024 165.919C355.958 163.407 355.586 160.655 355.945 157.95C356.146 156.432 356.188 154.897 356.069 153.37C355.993 152.813 355.769 152.287 355.421 151.846C355.072 151.405 354.612 151.065 354.088 150.863C354.005 150.831 353.941 150.78 353.859 150.755C353.258 150.523 352.607 150.455 351.971 150.558C351.335 150.66 350.738 150.93 350.241 151.339C349.364 152.324 348.775 153.533 348.535 154.829C347.813 157.806 347.591 159.81 347.003 163.426C343.786 161.835 340.26 160.972 336.672 160.895C335.033 160.849 332.791 160.556 331.497 161.784C331.006 162.256 330.672 162.867 330.538 163.534C330.405 164.202 330.479 164.894 330.75 165.519C331.454 167.158 333.343 167.543 334.859 168.12C335.919 168.523 336.982 168.924 338.049 169.311C338.259 169.386 338.72 169.432 338.802 169.67C338.907 169.961 338.477 169.899 338.326 169.899C333.35 170.044 331.227 168.945 327.835 170.314C327.395 170.448 326.986 170.667 326.632 170.96C326.277 171.253 325.984 171.614 325.771 172.021C325.557 172.428 325.426 172.874 325.386 173.332C325.345 173.79 325.396 174.252 325.536 174.69C325.724 175.276 326.063 175.803 326.521 176.213C327.592 176.939 328.836 177.37 330.128 177.461C332.22 177.823 334.333 178.052 336.455 178.148C337.121 178.185 337.783 178.292 338.429 178.469C332.177 179.531 329.498 179.625 327.38 181.576C326.91 182.167 326.658 182.902 326.667 183.658C326.677 184.413 326.946 185.141 327.43 185.721C328.85 187.439 331.323 187.219 333.299 187.255C340.467 187.377 341.012 196.905 352.26 208.969C362.407 219.851 373.651 222.251 382.901 219.4C387.537 217.761 391.786 215.182 395.381 211.826C398.976 208.47 401.839 204.407 403.792 199.894C406.611 193.482 408.331 186.642 408.878 179.659C409.212 177.631 409.266 175.567 409.039 173.525ZM356.096 186.635C356.575 186.9 367.53 193.18 367.53 193.18C367.706 193.283 367.833 193.452 367.885 193.649C367.937 193.847 367.909 194.056 367.807 194.233C367.704 194.409 367.535 194.537 367.338 194.589C367.14 194.641 366.93 194.613 366.754 194.51C366.275 194.244 355.318 187.968 355.318 187.968C355.23 187.917 355.154 187.849 355.093 187.768C355.031 187.688 354.985 187.596 354.959 187.497C354.933 187.399 354.927 187.296 354.942 187.196C354.972 186.994 355.078 186.812 355.24 186.687C355.403 186.564 355.609 186.51 355.812 186.536C355.913 186.55 356.009 186.582 356.096 186.635ZM372.825 213.405C375.09 214.025 377.486 213.989 379.731 213.3C380.682 212.997 381.085 214.49 380.141 214.788C377.634 215.597 374.942 215.633 372.415 214.891C372.267 214.852 372.134 214.769 372.033 214.653C371.933 214.538 371.869 214.395 371.85 214.243C371.831 214.091 371.858 213.937 371.927 213.8C371.996 213.663 372.105 213.551 372.238 213.476C372.416 213.375 372.627 213.349 372.825 213.403V213.405ZM346.49 169.874C347.467 170.035 347.051 171.523 346.08 171.363L342.221 170.738C341.243 170.58 341.66 169.093 342.631 169.249L346.49 169.874ZM342.649 178.622C344.039 179.034 345.475 179.272 346.922 179.334C347.914 179.375 347.916 180.919 346.922 180.875C345.335 180.817 343.762 180.559 342.239 180.108C342.091 180.069 341.959 179.986 341.858 179.87C341.757 179.755 341.693 179.612 341.675 179.46C341.656 179.308 341.682 179.154 341.752 179.017C341.821 178.881 341.929 178.768 342.063 178.693C342.151 178.643 342.248 178.61 342.349 178.598C342.449 178.585 342.552 178.593 342.649 178.62V178.622Z" fill="white"/>
<path d="M308.277 85.2685L306.372 72.9849C306.219 72.0071 304.732 72.4239 304.883 73.3948L306.789 85.6784C306.94 86.6562 308.428 86.2395 308.277 85.2685Z" fill="black"/>
<path d="M343.814 90.4917L350.187 77.5074C350.622 76.6234 349.292 75.8402 348.854 76.7333L342.483 89.7131C342.046 90.5993 343.376 91.3825 343.814 90.4917Z" fill="black"/>
<path d="M373.917 142.505C377.902 141.099 381.932 139.793 385.992 138.593C386.097 138.573 386.196 138.531 386.283 138.47C386.371 138.409 386.445 138.331 386.5 138.241C386.556 138.15 386.593 138.049 386.608 137.944C386.623 137.838 386.616 137.731 386.588 137.629C386.56 137.526 386.511 137.43 386.444 137.348C386.377 137.265 386.294 137.197 386.199 137.148C386.105 137.098 386.002 137.069 385.895 137.062C385.789 137.055 385.683 137.069 385.582 137.105C381.488 138.165 377.492 139.612 373.507 141.018C372.584 141.346 372.978 142.837 373.917 142.505Z" fill="black"/>
<path d="M236.692 127.75C236.495 127.697 236.285 127.723 236.107 127.824C235.93 127.925 235.799 128.092 235.744 128.288C235.693 128.485 235.721 128.695 235.821 128.871C235.922 129.048 236.087 129.179 236.282 129.237L248.19 134.233C248.387 134.286 248.597 134.259 248.775 134.159C248.952 134.058 249.083 133.891 249.138 133.695C249.189 133.498 249.161 133.289 249.061 133.113C248.96 132.936 248.795 132.805 248.6 132.747L236.692 127.75Z" fill="black"/>
<path d="M444.62 187.056H431.619C431.415 187.056 431.218 187.138 431.074 187.283C430.929 187.427 430.848 187.624 430.848 187.828C430.848 188.033 430.929 188.229 431.074 188.374C431.218 188.519 431.415 188.6 431.619 188.6H444.62C444.824 188.6 445.021 188.519 445.165 188.374C445.31 188.229 445.391 188.033 445.391 187.828C445.391 187.624 445.31 187.427 445.165 187.283C445.021 187.138 444.824 187.056 444.62 187.056Z" fill="black"/>
<path d="M418.615 156.687H428.07C428.275 156.687 428.471 156.605 428.616 156.461C428.761 156.316 428.842 156.12 428.842 155.915C428.842 155.71 428.761 155.514 428.616 155.369C428.471 155.225 428.275 155.143 428.07 155.143H418.615C418.41 155.143 418.214 155.225 418.069 155.369C417.925 155.514 417.843 155.71 417.843 155.915C417.843 156.12 417.925 156.316 418.069 156.461C418.214 156.605 418.41 156.687 418.615 156.687Z" fill="black"/>
<path d="M445.803 141.366H427.025C426.828 141.376 426.642 141.462 426.506 141.605C426.37 141.748 426.294 141.938 426.295 142.136C426.294 142.334 426.369 142.524 426.505 142.668C426.641 142.812 426.827 142.897 427.025 142.907H445.803C445.95 142.9 446.093 142.851 446.213 142.765C446.333 142.679 446.425 142.56 446.48 142.423C446.534 142.286 446.548 142.136 446.52 141.992C446.492 141.847 446.423 141.713 446.321 141.607C446.185 141.463 446 141.377 445.803 141.366Z" fill="black"/>
<path d="M155.609 177.502C155.568 176.515 154.024 176.509 154.066 177.502C154.206 178.804 153.986 180.118 153.431 181.304C153.186 181.822 152.801 182.261 152.319 182.572C151.836 182.882 151.277 183.051 150.704 183.06C149.543 182.842 148.481 182.261 147.671 181.401C146.861 180.541 146.344 179.446 146.195 178.274C146.176 178.162 146.132 178.055 146.064 177.963C146.182 175.139 145.775 172.318 144.864 169.643C144.832 169.544 144.78 169.452 144.711 169.373C144.642 169.295 144.558 169.231 144.464 169.186C144.369 169.14 144.267 169.115 144.162 169.11C144.058 169.106 143.954 169.122 143.856 169.159C143.758 169.196 143.669 169.252 143.593 169.325C143.518 169.397 143.458 169.484 143.417 169.58C143.376 169.676 143.355 169.78 143.355 169.884C143.355 169.989 143.376 170.092 143.417 170.188C143.912 171.603 144.242 173.069 144.406 174.56C144.745 176.519 144.62 178.531 144.042 180.434C143.809 181.205 143.288 181.856 142.587 182.253C141.885 182.649 141.058 182.759 140.278 182.561C135.73 181.091 137.681 175.861 135.874 172.041C135.45 171.143 134.127 171.924 134.543 172.819C134.756 173.282 134.917 173.765 135.027 174.262C134.529 173.817 133.946 173.479 133.313 173.268C132.68 173.057 132.01 172.978 131.345 173.035C130.68 173.092 130.034 173.285 129.446 173.601C128.859 173.917 128.342 174.35 127.928 174.874C125.793 177.903 125.679 181.395 125.276 185.559C125.18 186.543 126.723 186.539 126.819 185.559C126.817 182.469 127.44 179.411 128.651 176.568C128.909 176.003 129.315 175.517 129.827 175.165C130.338 174.812 130.936 174.604 131.556 174.564C132.177 174.524 132.796 174.653 133.349 174.938C133.901 175.222 134.366 175.651 134.695 176.179C136.527 179.614 134.255 184.114 136.332 188.334C136.769 189.225 138.1 188.444 137.665 187.556C136.963 185.827 136.718 183.947 136.953 182.096C137.455 182.839 138.155 183.427 138.974 183.793C139.793 184.159 140.699 184.288 141.587 184.167C142.476 184.045 143.313 183.678 144.004 183.105C144.695 182.533 145.212 181.779 145.496 180.928C145.984 181.973 146.744 182.866 147.698 183.514C148.651 184.161 149.762 184.538 150.912 184.606C154.311 184.395 155.95 180.795 155.609 177.502Z" fill="#7AF264" fill-opacity="0.7"/>
<path d="M286.526 325.936C286.526 265.251 286.657 252.349 286.476 249.45C286.419 248.534 286.329 248.625 286.197 248.534C285.956 248.353 224.515 210.389 224.286 210.249C224.169 210.18 224.034 210.143 223.897 210.143C223.76 210.143 223.626 210.18 223.508 210.249C222.161 211.055 161.137 248.103 160.897 248.284C159.981 248.971 160.304 248.95 160.283 249.143C160.283 331.166 160.208 326.71 160.389 327.349C160.574 327.619 156.166 324.498 222.585 370.833C222.702 370.906 222.837 370.944 222.974 370.943C223.112 370.944 223.247 370.906 223.364 370.833C236.925 361.502 286.055 327.722 286.3 327.504C286.664 327.126 286.526 326.414 286.526 325.936ZM223.902 211.825C223.902 211.825 283.769 248.859 284.234 249.152C284.234 249.152 224.071 285.274 223.396 285.744C221.461 284.581 164.772 250.384 162.569 249.118C171.91 243.448 223.677 211.985 223.902 211.825ZM224.275 345.149C224.276 345.25 224.256 345.351 224.217 345.445C224.179 345.539 224.122 345.624 224.05 345.696C223.979 345.768 223.893 345.824 223.799 345.863C223.705 345.902 223.605 345.921 223.503 345.92C223.402 345.921 223.301 345.902 223.207 345.863C223.113 345.824 223.028 345.768 222.956 345.696C222.884 345.624 222.828 345.539 222.789 345.445C222.75 345.351 222.731 345.25 222.732 345.149V306.148C222.737 305.997 222.787 305.852 222.874 305.729C222.96 305.607 223.081 305.512 223.221 305.457C223.361 305.402 223.514 305.389 223.661 305.419C223.809 305.449 223.944 305.522 224.051 305.628C224.188 305.765 224.27 305.953 224.275 306.148C224.408 313.822 224.449 335.096 224.275 345.153V345.149Z" fill="#3342F3"/>
<path d="M269.406 246.562C268.608 245.378 267.517 244.421 266.239 243.785C264.961 243.148 263.54 242.854 262.115 242.931C262.115 242.931 185.942 242.876 184.861 242.965C183.438 242.974 182.047 243.383 180.845 244.145C179.643 244.908 178.681 245.993 178.067 247.277C176.785 250.831 180.412 255.063 187.241 254.587C187.241 254.587 260.775 254.573 261.989 254.587C267.885 254.648 271.387 250.256 269.406 246.562ZM245.386 246.649C245.401 246.455 245.489 246.273 245.632 246.141C245.775 246.009 245.963 245.935 246.158 245.935C246.353 245.935 246.541 246.009 246.684 246.141C246.827 246.273 246.915 246.455 246.93 246.649V250.581C246.915 250.776 246.827 250.957 246.684 251.09C246.541 251.222 246.353 251.296 246.158 251.296C245.963 251.296 245.775 251.222 245.632 251.09C245.489 250.957 245.401 250.776 245.386 250.581V246.649ZM198.501 246.649C198.511 246.452 198.597 246.266 198.74 246.13C198.884 245.994 199.075 245.918 199.272 245.919C199.47 245.918 199.661 245.994 199.805 246.13C199.948 246.266 200.034 246.452 200.044 246.649V250.297C200.034 250.495 199.948 250.682 199.804 250.818C199.66 250.954 199.468 251.029 199.27 251.028C199.072 251.029 198.882 250.953 198.738 250.817C198.594 250.681 198.508 250.495 198.498 250.297V246.649H198.501Z" fill="#7AF264" fill-opacity="0.7"/>
<path d="M114.37 268.647L118.895 270.238C119.834 270.568 120.239 269.077 119.307 268.75L114.779 267.161C113.841 266.831 113.438 268.322 114.37 268.647Z" fill="#7AF264" fill-opacity="0.7"/>
<path d="M367.545 193.168C367.545 193.168 356.589 186.889 356.111 186.624C355.935 186.538 355.734 186.522 355.547 186.579C355.361 186.636 355.202 186.761 355.104 186.929C355.005 187.098 354.974 187.297 355.017 187.488C355.059 187.678 355.172 187.845 355.332 187.956C355.332 187.956 366.29 194.231 366.768 194.499C366.944 194.587 367.146 194.605 367.334 194.549C367.522 194.493 367.682 194.368 367.781 194.198C367.88 194.029 367.911 193.828 367.867 193.636C367.823 193.445 367.708 193.278 367.545 193.168Z" fill="black"/>
<path d="M284.985 335.107V353.427C284.995 353.624 285.081 353.81 285.225 353.946C285.369 354.081 285.559 354.156 285.756 354.155C285.954 354.156 286.144 354.081 286.287 353.945C286.43 353.81 286.516 353.624 286.526 353.427V335.107C286.52 334.959 286.471 334.816 286.386 334.695C286.3 334.574 286.182 334.48 286.044 334.425C285.907 334.371 285.756 334.357 285.611 334.385C285.465 334.414 285.332 334.484 285.225 334.587C285.082 334.724 284.996 334.91 284.985 335.107Z" fill="black"/>
<path d="M35.6024 329.476L31.4667 331.766C30.5965 332.245 31.3751 333.578 32.2453 333.099L36.381 330.809C37.2512 330.328 36.4726 328.995 35.6024 329.476Z" fill="#7AF264" fill-opacity="0.7"/>
<path d="M163.794 353.427V335.107C163.794 334.903 163.713 334.706 163.568 334.562C163.424 334.417 163.227 334.336 163.023 334.336C162.818 334.336 162.622 334.417 162.477 334.562C162.332 334.706 162.251 334.903 162.251 335.107V353.427C162.251 353.632 162.332 353.828 162.477 353.973C162.622 354.118 162.818 354.199 163.023 354.199C163.227 354.199 163.424 354.118 163.568 353.973C163.713 353.828 163.794 353.632 163.794 353.427Z" fill="black"/>
<path d="M222.2 375.295V384.826C222.2 385.03 222.282 385.227 222.426 385.371C222.571 385.516 222.767 385.597 222.972 385.597C223.177 385.597 223.373 385.516 223.518 385.371C223.662 385.227 223.744 385.03 223.744 384.826V375.295C223.744 375.09 223.662 374.894 223.518 374.749C223.373 374.604 223.177 374.523 222.972 374.523C222.767 374.523 222.571 374.604 222.426 374.749C222.282 374.894 222.2 375.09 222.2 375.295Z" fill="black"/>
<path d="M50.4458 329.973C49.3535 330.795 48.3276 331.702 47.3795 332.687C46.6925 333.404 47.7826 334.498 48.4696 333.779C49.3191 332.884 50.2374 332.057 51.2176 331.306C52.003 330.713 51.2382 329.376 50.4458 329.973Z" fill="#7AF264" fill-opacity="0.7"/>
<path d="M40.2254 286.433C39.8796 288.732 39.3254 290.995 38.5697 293.193C38.2468 294.135 39.7353 294.538 40.0559 293.603C40.8116 291.405 41.3658 289.142 41.7139 286.843C41.8581 285.872 40.3742 285.456 40.2254 286.433Z" fill="#7AF264" fill-opacity="0.7"/>
<path d="M224.275 345.154V306.148C224.275 305.943 224.194 305.747 224.049 305.602C223.904 305.458 223.708 305.376 223.503 305.376C223.299 305.376 223.103 305.458 222.958 305.602C222.813 305.747 222.732 305.943 222.732 306.148V345.154C222.732 345.358 222.813 345.555 222.958 345.699C223.103 345.844 223.299 345.925 223.503 345.925C223.708 345.925 223.904 345.844 224.049 345.699C224.194 345.555 224.275 345.358 224.275 345.154Z" fill="black"/>
<path d="M133.291 282.107C133.255 282.005 133.198 281.912 133.124 281.833C133.05 281.754 132.96 281.692 132.861 281.649C132.318 281.42 131.546 281.823 131.805 282.52C136.925 296.363 136.09 306.237 131.576 318.626C131.54 318.818 131.577 319.016 131.681 319.182C131.784 319.347 131.947 319.467 132.135 319.518C132.324 319.569 132.525 319.546 132.698 319.455C132.87 319.364 133.002 319.211 133.067 319.027C134.799 314.616 135.968 310.005 136.548 305.303C137.334 297.422 136.217 289.467 133.291 282.107Z" fill="#7AF264" fill-opacity="0.7"/>
<path d="M107.194 103.084C108.011 103.652 108.778 102.326 107.972 101.754C107.37 101.316 106.861 100.763 106.475 100.127C106.088 99.4914 105.831 98.7853 105.718 98.0496C105.606 97.314 105.64 96.5633 105.82 95.8411C105.999 95.1188 106.32 94.4392 106.763 93.8416C107.354 93.0424 106.007 92.2684 105.433 93.063C104.885 93.8348 104.496 94.7075 104.288 95.6307C104.08 96.5539 104.057 97.5091 104.221 98.4412C104.385 99.3732 104.732 100.263 105.242 101.06C105.752 101.857 106.416 102.545 107.194 103.084Z" fill="black"/>
<path d="M68.0904 123.944L69.0774 117.967C69.2377 116.996 67.7515 116.579 67.5889 117.555L66.6019 123.532C66.4416 124.505 67.9278 124.922 68.0904 123.944Z" fill="black"/>
<path d="M344.527 214.756C340.923 217.204 337.498 219.905 334.279 222.84C334.148 222.987 334.079 223.179 334.085 223.376C334.092 223.573 334.173 223.76 334.313 223.898C334.452 224.037 334.639 224.118 334.836 224.124C335.032 224.131 335.224 224.062 335.371 223.932C338.487 221.079 341.807 218.458 345.305 216.089C346.086 215.56 345.367 214.193 344.527 214.759V214.756Z" fill="white"/>
<path d="M325.441 239.898C323.812 241.618 322.385 243.518 321.188 245.561C321.093 245.738 321.07 245.944 321.125 246.136C321.18 246.329 321.308 246.492 321.481 246.592C321.654 246.691 321.858 246.72 322.051 246.674C322.245 246.626 322.413 246.506 322.521 246.338C323.679 244.427 325.022 242.636 326.531 240.988C327.204 240.26 326.116 239.168 325.441 239.898Z" fill="white"/>
<path d="M357.093 115.031C361.361 119.112 368.167 119.455 371.062 114.344C374.78 112.459 378.774 111.176 382.894 110.542C389.056 109.237 387.11 103.336 383.045 102.58C389.833 97.4689 383.86 93.0583 377.645 96.1544C377.72 95.5675 377.627 94.9714 377.377 94.4352C377.127 93.899 376.73 93.4446 376.232 93.1248C375.335 92.6713 374.342 92.4423 373.336 92.4575C372.331 92.4727 371.345 92.7315 370.462 93.2118C365.666 95.0358 361.668 98.4948 359.174 102.979C357.469 103.682 356.098 105.01 355.341 106.692C354.584 108.374 354.499 110.282 355.103 112.024C355.501 113.178 356.186 114.213 357.093 115.031ZM375.142 98.3666C375.147 98.5728 375.211 98.7733 375.328 98.9434C375.445 99.1135 375.609 99.2457 375.8 99.3238C375.99 99.4032 376.198 99.4258 376.401 99.3888C376.603 99.3518 376.791 99.2568 376.94 99.1154C379.958 96.3376 386.173 96.6674 383.148 99.6925C381.497 101.277 379.568 102.543 377.458 103.427C376.313 103.918 377.094 105.759 378.255 105.372L378.381 105.33C380.169 104.74 382.617 103.931 384.089 105.434C384.336 105.647 384.519 105.924 384.618 106.234C384.718 106.544 384.731 106.875 384.655 107.192C383.478 109.253 380.153 107.852 371.982 111.543C372.534 106.551 367.343 101.948 362.135 102.248C364.798 98.4433 368.737 95.7197 373.237 94.572C373.639 94.4546 374.068 94.4618 374.466 94.5926C374.864 94.7234 375.213 94.9717 375.468 95.3048C375.745 96.1407 375.282 96.6079 375.142 98.3666ZM367.771 114.958C363.367 118.267 354.601 113.107 357.283 107.586C359.946 102.102 368.103 103.945 369.795 109.828C369.977 110.787 369.883 111.778 369.525 112.686C369.167 113.594 368.559 114.381 367.771 114.958Z" fill="black"/>
<path d="M137.906 98.0281C138.142 99.6393 138.962 101.108 140.208 102.155C141.455 103.203 143.042 103.758 144.67 103.714C146.141 103.7 147.578 103.267 148.811 102.464C150.045 101.662 151.023 100.524 151.632 99.1846C151.956 98.3064 152.036 97.3564 151.861 96.4366C152.241 92.3535 152.319 88.2498 152.104 84.1553C152.333 79.9142 150.146 78.8013 146.062 78.2357C144.236 77.8699 142.348 77.9628 140.566 78.5059C139.777 78.889 139.118 79.4953 138.67 80.2496C138.223 81.0039 138.006 81.873 138.047 82.7492C137.65 87.314 137.637 91.904 138.009 96.4709C137.917 96.9839 137.883 97.506 137.906 98.0281ZM149.994 92.6512C149.347 91.9607 148.564 91.4104 147.695 91.0342C146.826 90.658 145.89 90.4639 144.943 90.4639C143.996 90.4639 143.059 90.658 142.19 91.0342C141.321 91.4104 140.539 91.9607 139.891 92.6512C139.735 89.2254 139.84 85.7926 140.207 82.3828C140.198 82.0159 140.285 81.653 140.458 81.3295C140.632 81.006 140.886 80.733 141.196 80.5371C142.071 80.223 143.003 80.1042 143.928 80.189C145.021 80.2028 146.109 80.3403 147.171 80.5989C149.426 80.8966 150.253 82.1447 150.024 84.9339C150.147 87.5051 150.137 90.081 149.994 92.6512ZM148.691 94.4443C149.388 95.2733 149.797 96.306 149.855 97.3892C149.834 99.8533 146.685 101.763 144.281 101.603C143.281 101.527 142.33 101.138 141.563 100.491C140.797 99.8429 140.255 98.9699 140.015 97.9961C139.65 92.9054 146.166 90.6841 148.696 94.4443H148.691Z" fill="black"/>
<path d="M81.9222 208.928C83.91 209.114 85.8984 208.579 87.5246 207.421C89.1507 206.263 90.3061 204.558 90.7799 202.619C91.1944 200.905 91.0291 199.101 90.3098 197.491C89.5906 195.88 88.3579 194.553 86.8045 193.718C85.0063 192.823 82.9732 192.514 80.9904 192.834C79.0076 193.153 77.1745 194.085 75.7484 195.499C74.8766 196.72 74.3429 198.15 74.2012 199.643C74.0595 201.137 74.3149 202.641 74.9415 204.004C75.5681 205.367 76.5438 206.54 77.7696 207.405C78.9955 208.269 80.428 208.795 81.9222 208.928ZM79.2589 195.433C83.555 193.787 88.6228 195.694 88.8357 200.411C88.9113 201.93 88.4165 203.423 87.4484 204.595C86.4803 205.768 85.1088 206.537 83.6031 206.75C81.9341 206.995 80.2359 206.573 78.8754 205.576C77.5149 204.579 76.6014 203.087 76.3323 201.421C76.094 200.24 76.2515 199.014 76.7805 197.931C77.3096 196.849 78.1807 195.971 79.2589 195.433Z" fill="black"/>
<path d="M156.582 88.4466C156.819 88.5732 157.095 88.6053 157.355 88.5365C157.615 88.4676 157.84 88.303 157.983 88.0756L166.566 73.7059C166.642 73.5854 166.694 73.4507 166.717 73.31C166.74 73.1692 166.734 73.0252 166.7 72.8867C166.667 72.7481 166.605 72.6178 166.52 72.5035C166.434 72.3893 166.327 72.2935 166.203 72.2218C166.08 72.1501 165.943 72.104 165.802 72.0864C165.66 72.0687 165.517 72.0797 165.38 72.1189C165.242 72.158 165.114 72.2245 165.004 72.3142C164.893 72.4039 164.801 72.5151 164.734 72.641C161.839 77.4096 158.978 82.1989 156.151 87.0085C156.084 87.1309 156.042 87.2656 156.027 87.4045C156.012 87.5434 156.025 87.6839 156.065 87.8177C156.105 87.9515 156.172 88.0761 156.26 88.184C156.349 88.292 156.458 88.3813 156.582 88.4466Z" fill="black"/>
<path d="M162.29 89.681L171.076 83.0538C172.155 82.2386 171.053 80.4317 169.952 81.263L161.165 87.904C160.082 88.7101 161.184 90.5123 162.29 89.681Z" fill="black"/>
<path d="M426.108 268.212C426.304 268.007 426.414 267.735 426.413 267.452C426.407 267.168 426.29 266.899 426.088 266.701C419.083 260.927 402.118 246.631 394.779 237.714C399.619 234.965 403.97 231.433 407.653 227.26C413.403 220.642 415.966 211.688 415.265 200.666C413.955 179.891 415.249 157.117 403.788 143.732C397.359 136.278 388.574 131.248 378.891 129.477C371.066 128.736 363.172 129.574 355.677 131.941C353.595 122.851 348.762 114.623 341.836 108.377C334.91 102.132 326.228 98.1722 316.972 97.0374C307.715 95.9026 298.334 97.6478 290.104 102.035C281.875 106.423 275.198 113.24 270.981 121.558C270.191 123.115 269.818 124.031 266.96 130.599C265.957 131.286 265.016 132.17 264.212 132.832C259.811 136.001 255.833 139.721 252.377 143.902C251.101 145.64 250.235 147.644 249.843 149.765C249.451 151.885 249.543 154.067 250.113 156.146C250.696 158.203 251.895 160.033 253.548 161.39L249.371 170.979C249.302 171.101 249.258 171.236 249.241 171.376C249.224 171.516 249.236 171.657 249.274 171.792C249.312 171.928 249.377 172.054 249.464 172.165C249.552 172.275 249.66 172.367 249.783 172.435L266.898 179.898L262.836 189.599C262.757 189.867 262.789 190.156 262.923 190.402C263.057 190.648 263.284 190.83 263.553 190.908C263.821 190.987 264.11 190.956 264.356 190.821C264.602 190.687 264.784 190.46 264.863 190.192L268.826 180.739L308.805 198.165L304.635 206.675C304.033 207.898 305.87 208.947 306.481 207.706L310.743 199.004L328.989 206.959C329.927 212.516 331.425 217.963 333.462 223.218C324.02 231.348 311.828 243.304 306.996 254.339C301.342 267.248 298.665 284.304 298.04 295.98C298.041 296.261 298.152 296.529 298.351 296.727C298.549 296.925 298.818 297.036 299.098 297.036H348.006C348.242 297.031 348.47 296.948 348.655 296.801C348.841 296.654 348.973 296.45 349.031 296.221C350.154 287.49 352.91 279.049 357.156 271.338C367.278 283.365 380.145 292.779 394.671 298.786C394.851 298.835 395.041 298.835 395.222 298.788C395.403 298.741 395.568 298.648 395.702 298.518C403.286 291.073 423.761 270.571 426.108 268.212ZM392.942 238.847C400.682 248.115 416.889 261.837 423.8 267.548C413.495 277.853 406.909 285.069 394.717 296.539C380.556 290.582 368.048 281.283 358.265 269.437C367.152 255.413 379.731 246.945 392.942 238.847ZM300.218 294.925C300.917 283.073 303.192 271.368 306.982 260.117C309.135 253.854 312.543 246.62 322.795 236.177C329.726 229.062 337.202 222.499 345.154 216.547C345.535 216.293 345.683 216.192 345.8 215.956C348.267 214.082 350.772 212.258 353.311 210.483C362.201 219.414 373.005 222.776 382.985 219.701C391.724 216.66 398.927 210.322 403.057 202.042H413.222C413.893 210 411.753 217.94 407.177 224.484C400.211 233.889 391.131 236.056 373.997 249.216C366.64 254.61 360.46 261.448 355.834 269.311C351.208 277.173 348.233 285.897 347.092 294.948L300.218 294.925ZM333.246 137.027C332.734 138.075 331.904 138.935 330.874 139.484C330.077 140 329.213 140.404 328.307 140.686C329.571 139.24 330.913 137.864 332.328 136.564C333.366 135.733 333.473 136.562 333.246 137.027ZM322.101 135.708C322.236 130.762 325.536 129.841 325.497 130.521C325.497 132.179 323.347 134.588 322.101 135.708ZM314.432 128.517C314.436 127.441 314.677 126.374 315.133 125.398C315.701 124.453 316.818 124.856 316.639 125.474C316.165 126.655 315.407 127.7 314.432 128.517ZM303.328 121.895C303.394 121.752 303.496 121.629 303.623 121.535C303.749 121.442 303.898 121.382 304.054 121.361C304.21 121.341 304.368 121.361 304.514 121.419C304.66 121.477 304.79 121.572 304.889 121.693C305.73 123.037 305.489 124.281 304.619 129.081C303.749 128.126 303.167 126.945 302.938 125.674C302.71 124.403 302.845 123.093 303.328 121.895ZM306.105 132.639C307.174 133.059 308.32 133.243 309.466 133.18C310.612 133.116 311.731 132.806 312.746 132.271C313.145 135.108 314.621 137.682 316.868 139.459C317.454 139.752 318.103 139.896 318.758 139.878C319.413 139.86 320.053 139.679 320.622 139.354C321.181 140.805 322.258 141.997 323.645 142.702C311.195 156.54 300.785 172.085 292.73 188.866L284.715 185.378C295.264 169.387 302.535 151.461 306.105 132.639ZM326.042 143.185C329.132 143.053 332.047 141.717 334.165 139.464C336.251 137.529 335.587 133.853 332.956 134.011C331.204 134.377 330.416 135.156 325.147 140.982C324.489 140.791 323.893 140.434 323.414 139.944C322.936 139.454 322.593 138.85 322.417 138.188C324.634 136.566 326.363 134.367 327.418 131.831C327.603 131.449 327.688 131.026 327.665 130.602C327.643 130.178 327.515 129.766 327.292 129.405C327.068 129.044 326.758 128.745 326.389 128.535C326.019 128.326 325.603 128.212 325.179 128.206C324.554 128.25 323.946 128.425 323.393 128.719C322.841 129.014 322.357 129.422 321.973 129.917C321.178 130.944 320.599 132.122 320.271 133.379C319.943 134.636 319.873 135.946 320.065 137.231C319.541 137.601 318.914 137.798 318.272 137.796C317.942 137.668 317.646 137.464 317.409 137.201C315.893 135.492 314.928 133.366 314.64 131.1C316.58 129.768 318.031 127.838 318.774 125.604C319.108 123.23 316.415 122.202 314.583 123.085C314.066 123.426 313.626 123.87 313.291 124.39C312.956 124.911 312.733 125.495 312.636 126.106C312.36 127.404 312.288 128.738 312.421 130.059C311.568 130.647 310.575 130.999 309.543 131.079C308.51 131.16 307.474 130.966 306.54 130.517C306.966 128.549 307.285 126.562 307.491 124.563C307.658 122.927 307.34 119.983 305.098 119.362C304.465 119.196 303.797 119.228 303.183 119.453C302.569 119.677 302.039 120.084 301.663 120.619C299.806 123.225 300.518 128.634 304.182 131.531C300.715 150.467 293.428 168.5 282.766 184.528C279.917 183.278 254.718 172.224 251.684 170.937L255.185 162.899C255.725 163.604 256.444 164.15 257.268 164.481C258.091 164.812 258.988 164.916 259.866 164.782C260.367 164.664 260.84 164.446 261.255 164.142C261.671 163.838 262.022 163.454 262.286 163.012C263.527 160.951 262.19 158.798 261.011 156.897C260.627 156.273 260.228 155.657 259.815 155.052C262.479 156.884 264.079 158.601 266.227 158.807C268.304 159.009 269.415 156.87 269.035 154.896C268.611 152.702 266.745 151.397 264.086 147.197C265.945 149.039 268.247 150.372 270.771 151.067C274.405 151.612 278.298 146.622 271.249 143.437C269.346 142.576 267.047 141.417 268.385 139.83C269.191 139.049 270.075 138.352 271.023 137.751C275.832 134.316 273.695 128.957 269.777 129.436C269.777 129.436 271.217 126.136 271.716 124.984C274.869 117.66 279.984 111.35 286.497 106.75C293.009 102.151 300.667 99.44 308.623 98.9178C316.579 98.3956 324.525 100.082 331.583 103.791C338.641 107.501 344.537 113.088 348.619 119.937C354.089 129.116 355.967 139.994 353.893 150.476C353.247 150.244 352.551 150.186 351.875 150.306C351.198 150.427 350.566 150.722 350.039 151.163C348.225 153.201 348.042 155.212 346.792 163.012C343.633 161.509 340.19 160.695 336.693 160.623C334.93 160.575 332.69 160.28 331.311 161.59C330.78 162.102 330.417 162.765 330.272 163.489C330.126 164.213 330.205 164.965 330.498 165.643C331.33 167.582 333.246 167.761 338.094 169.643C333.514 169.744 331.135 168.705 327.741 170.072C327.1 170.265 326.522 170.627 326.069 171.119C325.615 171.612 325.301 172.217 325.161 172.872C325.021 173.527 325.059 174.207 325.271 174.843C325.483 175.478 325.862 176.045 326.367 176.484C327.472 177.232 328.753 177.678 330.084 177.778C332.282 178.149 334.499 178.387 336.725 178.487C332.45 179.174 329.294 179.463 327.16 181.428C326.652 182.071 326.38 182.869 326.389 183.688C326.399 184.508 326.689 185.299 327.212 185.93C328.701 187.732 331.105 187.533 333.295 187.57C334.167 187.586 335.028 187.776 335.826 188.13C336.624 188.484 337.343 188.994 337.941 189.631C337.941 189.631 331.799 203.6 330.982 205.564L294.667 189.731C302.799 172.768 313.369 157.087 326.042 143.185ZM251.729 151.71L253.282 153.852C254.067 154.944 255.893 153.865 255.077 152.739L253.367 150.378C253.206 150.157 252.97 150.003 252.703 149.946C252.437 149.889 252.158 149.933 251.922 150.069C252.872 146.501 254.938 143.332 257.818 141.023C257.818 141.023 259.215 143.359 259.625 144.023C259.769 144.265 260.002 144.441 260.273 144.515C260.476 144.569 260.69 144.562 260.889 144.493C261.087 144.424 261.26 144.298 261.386 144.131C261.472 144.02 261.534 143.894 261.57 143.759C261.605 143.624 261.613 143.483 261.592 143.345C261.574 143.207 261.528 143.074 261.457 142.954C260.864 141.912 260.228 140.943 259.625 139.899C259.561 139.788 259.476 139.69 259.376 139.61C261.375 137.874 267.331 132.896 268.618 132.074C269.037 131.806 270.468 131.016 271.325 132.012C271.56 132.346 271.689 132.742 271.698 133.15C271.706 133.558 271.592 133.959 271.371 134.302C270.388 136.111 268.213 136.821 266.823 138.399C266.45 138.809 266.178 139.302 266.029 139.836C265.881 140.37 265.859 140.932 265.966 141.476C267.075 145.301 271.577 144.719 272.861 147.142C272.967 147.311 273.021 147.508 273.015 147.708C273.01 147.908 272.945 148.101 272.829 148.264C272.619 148.519 272.348 148.718 272.041 148.842C271.735 148.965 271.402 149.01 271.073 148.972C268.075 148.262 266.646 146.384 264.32 144.694C263.913 144.396 263.406 144.27 262.907 144.343C262.409 144.416 261.959 144.682 261.654 145.083C260.956 146.022 261.556 147.034 262.034 147.847C264.943 152.784 267.796 154.534 266.926 156.32C266.468 157.248 264.895 156.103 264.05 155.484C263.33 154.958 263.505 155.116 261.911 153.927C260.317 152.743 259.554 152.178 258.526 152.462C258.043 152.597 257.632 152.917 257.384 153.353C257.135 153.789 257.068 154.306 257.198 154.791C257.438 155.661 259.167 157.332 260.404 160.273C260.56 160.537 260.643 160.838 260.645 161.145C260.648 161.451 260.569 161.753 260.418 162.02C260.18 162.361 259.827 162.604 259.423 162.705C259.02 162.806 258.594 162.757 258.224 162.567C257.354 162.015 256.559 161.351 255.861 160.593C254.979 159.902 254.178 159.114 253.472 158.244C252.244 156.292 251.636 154.014 251.729 151.71ZM354.605 164.681C356.384 169.063 358.654 173.229 361.372 177.1C363.058 179.564 368.98 187.524 374.567 186.516C379.42 185.639 381.394 177.796 381.895 175.394C382.182 173.414 382.752 171.486 383.588 169.669C385.187 166.716 387.892 164.519 391.109 163.559C394.327 162.599 397.793 162.955 400.749 164.548C402.661 165.56 404.276 167.052 405.436 168.878C406.596 170.704 407.261 172.8 407.365 174.961C407.388 177.081 407.223 179.202 406.87 181.295C406.194 187.966 404.379 194.473 401.505 200.531C396.696 210.229 386.75 218.711 375.628 218.711C359.888 218.711 349.292 203.762 342.663 192.482C340.469 188.747 337.788 185.458 333.45 185.458C331.827 185.458 329.594 185.76 328.756 184.441C327.494 182.456 330.624 181.693 332.958 181.247C338.023 180.269 340.474 180.663 340.462 178.465C340.462 176.513 337.785 176.392 336.352 176.323C333.613 176.247 330.892 175.856 328.243 175.16C327.934 175.05 327.666 174.849 327.473 174.583C327.281 174.317 327.173 174 327.164 173.672C327.226 172.508 328.701 171.931 329.131 171.789C330.875 171.4 332.677 171.345 334.442 171.627C336.017 171.843 337.613 171.856 339.191 171.666C339.606 171.546 339.971 171.298 340.233 170.956C340.496 170.614 340.642 170.197 340.65 169.766C340.658 169.335 340.527 168.913 340.277 168.561C340.028 168.21 339.672 167.948 339.262 167.814C338.193 167.395 334.291 165.959 333.4 165.615C333.073 165.53 332.787 165.332 332.591 165.057C332.395 164.782 332.301 164.447 332.327 164.11C332.353 163.774 332.496 163.456 332.731 163.214C332.966 162.972 333.279 162.82 333.615 162.785C338.275 162.394 342.947 163.371 347.06 165.597C347.18 165.669 347.314 165.716 347.454 165.735C347.593 165.754 347.734 165.745 347.87 165.709C348.006 165.673 348.133 165.61 348.244 165.524C348.355 165.438 348.447 165.33 348.516 165.208C348.775 164.225 348.956 163.222 349.057 162.208C349.29 159.223 349.932 156.284 350.964 153.474C351.085 153.093 351.346 152.772 351.693 152.575C352.041 152.377 352.451 152.319 352.84 152.411C353.133 152.411 353.421 152.497 353.666 152.659C353.91 152.821 354.102 153.052 354.216 153.323C354.292 153.506 354.33 153.698 354.33 153.893C354.317 159.316 353.426 159.996 354.605 164.679V164.681ZM335.882 199.599L339.443 191.433C340.565 193.001 342.024 195.69 344.637 199.624C342.935 199.622 337.673 199.61 335.882 199.599ZM332.463 207.44L334.948 201.738H346.084C347.829 204.269 349.748 206.677 351.828 208.942C347.161 212.235 338.969 218.32 335.122 221.711C333.437 217.254 332.153 212.656 331.286 207.971C331.513 208.021 331.751 207.996 331.963 207.9C332.175 207.804 332.35 207.643 332.463 207.44ZM404.225 199.624C406.913 193.294 408.579 186.577 409.16 179.724C410.009 175.908 409.462 171.914 407.619 168.466C406.25 166.031 404.219 164.033 401.762 162.704C399.304 161.376 396.52 160.771 393.733 160.959C390.945 161.148 388.268 162.123 386.012 163.771C383.756 165.419 382.014 167.673 380.986 170.271C379.204 176.069 379.777 177.439 377.373 181.684C376.832 182.676 376.043 183.511 375.083 184.107C373.436 185.078 370.924 183.912 369.55 182.866C367.185 181.034 365.127 178.838 363.452 176.36C361.739 173.91 360.172 171.362 358.759 168.727C357.874 167.168 357.144 165.525 356.582 163.822C355.437 158.88 356.774 157.96 356.373 153.339C356.288 152.789 356.078 152.265 355.759 151.809C357.051 145.963 357.172 139.919 356.117 134.027C360.163 132.816 364.314 131.985 368.515 131.545C372.74 130.976 377.031 131.142 381.199 132.035C391.231 134.522 399.906 140.807 405.395 149.565C412.753 161.999 412.135 183.761 413.106 199.624H404.225Z" fill="black"/>
<path d="M286.809 249.381C286.834 249.179 286.806 248.973 286.728 248.785C286.65 248.596 286.525 248.431 286.365 248.305C286.083 248.092 224.993 210.337 224.43 210.004C224.267 209.907 224.082 209.856 223.893 209.856C223.703 209.856 223.518 209.907 223.356 210.004L190.544 229.962C190.707 213.474 191.378 167.433 188.009 151.614C187.153 147.31 185.382 143.241 182.816 139.681C180.251 136.122 176.95 133.155 173.138 130.981C163.857 125.584 151.033 123.58 135.017 125.027C125.839 125.669 117.124 129.296 110.202 135.355C103.632 141.538 93.0568 138.605 91.7332 132.131C90.4233 125.739 94.195 116.064 98.8162 113.969C100.037 113.415 100.735 114.528 101.37 115.695C103.277 119.197 105.798 122.478 109.137 120.275C113.882 117.152 107.319 110.593 109.861 107.859C111.019 106.832 112.536 106.303 114.081 106.387C119.87 106.284 122.815 108.83 126.083 108.775C129.344 108.917 132.01 105.553 129.94 102.942C129.013 101.79 127.827 100.874 126.477 100.27C124.407 99.3106 122.215 98.6388 119.962 98.2731C119.463 98.2227 118.627 98.1357 118.616 97.7464C118.59 97.0479 119.442 97.4121 123.841 97.8082C125.206 98.0143 126.587 98.083 127.963 98.0143C128.515 98.0162 129.06 97.8909 129.555 97.6482C130.05 97.4055 130.483 97.052 130.82 96.615C131.156 96.178 131.388 95.6694 131.496 95.1285C131.604 94.5876 131.587 94.0291 131.444 93.4962C130.965 92.4991 130.186 91.6765 129.217 91.1429C128.248 90.6093 127.136 90.3913 126.037 90.5192C123.696 90.3101 121.377 89.9056 119.103 89.31C122.018 88.7146 123.798 89.7451 127.073 89.033C127.777 88.7811 128.355 88.2624 128.681 87.5886C129.007 86.9147 129.055 86.1398 128.815 85.4308C127.975 82.9438 124.141 81.5378 117.095 81.1256C110.036 80.5707 102.936 81.3714 96.1781 83.4843C65.1921 93.3313 53.852 132.88 67.5531 153.256C74.4506 163.52 85.683 170.094 100.048 172.281C99.7863 186.439 99.5413 200.596 99.3131 214.754C98.1819 214.241 97.0231 213.788 95.8415 213.401C96.0247 204.211 97.1193 196.019 92.6355 190.716C87.6456 184.828 78.2405 185.921 72.811 191.275C67.592 196.416 65.7417 202.569 63.2823 209.954C62.5815 212.068 62.0251 213.733 61.7411 214.268C57.7984 220.402 52.0459 225.157 45.2806 227.876C41.2983 229.447 36.9793 230.26 33.3909 232.898C30.0318 235.368 27.599 238.894 26.482 242.912C25.9235 244.854 25.9516 246.918 26.5628 248.844C27.174 250.77 28.341 252.472 29.917 253.737C26.4123 255.045 23.5076 257.59 21.7508 260.893C18.7738 267.117 22.3165 272.865 27.3316 273.552C25.7502 275.343 24.569 277.451 23.8668 279.735C23.4406 281.133 23.3957 282.62 23.7367 284.041C24.0777 285.462 24.7923 286.766 25.8064 287.819C26.8395 288.666 28.053 289.266 29.3539 289.571C30.6547 289.877 32.0083 289.881 33.3107 289.582C33.5397 289.543 33.4688 287.766 26.4843 328.361C22.9815 327.728 19.3764 327.977 15.9938 329.084C9.81077 331.251 10.0787 337.255 13.9969 338.579C15.8678 339.085 16.0419 338.95 24.6042 339.122C22.9645 346.504 21.1211 348.435 22.6806 350.997C23.2322 351.891 24.095 352.55 25.1029 352.846C26.1108 353.142 27.1926 353.054 28.1399 352.6C31.1536 350.807 37.2999 343.953 41.0693 341.096C41.9654 340.332 42.9875 339.731 44.0898 339.318C44.4218 339.191 44.7833 339.16 45.1323 339.229C45.4812 339.298 45.8034 339.465 46.0615 339.71C47.6645 341.801 48.6606 347.038 50.6415 350.842C50.9963 351.654 51.6299 352.313 52.4279 352.698C53.2258 353.084 54.1354 353.172 54.9925 352.946C55.97 352.626 56.8523 352.067 57.5599 351.32C58.2675 350.573 58.7782 349.662 59.0458 348.669C59.8587 345.692 60.1518 340.976 61.2602 339.793C62.7114 338.996 64.3839 338.697 66.0211 338.943L79.9901 339.36C81.0454 339.395 82.0876 339.117 82.9853 338.561C83.883 338.006 84.5962 337.197 85.035 336.236C85.4749 335.277 85.622 334.209 85.4578 333.166C85.2937 332.123 84.8256 331.152 84.1121 330.374C83.521 329.682 82.7886 329.126 81.9641 328.741C81.1397 328.357 80.2425 328.154 79.3329 328.146C77.1162 328.146 71.0889 327.999 71.0889 327.999C71.0362 325.83 71.0041 323.529 70.9881 320.806H159.996V325.386C159.886 326.05 159.918 326.73 160.092 327.381C160.092 327.692 158.379 326.417 222.433 371.097C222.596 371.197 222.785 371.251 222.977 371.251C223.169 371.251 223.357 371.197 223.52 371.097C223.52 371.097 285.055 328.764 286.431 327.781C287.013 327.674 286.809 331.741 286.809 249.381ZM24.5011 347.482C25.4905 344.397 26.298 341.255 26.9194 338.075C26.917 337.797 26.8055 337.531 26.609 337.334C26.4125 337.137 26.1465 337.025 25.8682 337.022C23.8759 336.99 17.2853 336.882 16.0212 336.806C15.5797 336.831 15.1382 336.757 14.7289 336.59C14.3197 336.422 13.953 336.165 13.6557 335.838C13.3749 335.332 13.2662 334.749 13.3459 334.177C13.4256 333.604 13.6895 333.073 14.0976 332.664C14.8762 331.86 15.8564 331.281 16.935 330.985C18.1983 330.575 19.5045 330.312 20.828 330.2C23.0035 330.17 25.179 330.287 27.3384 330.55C27.5742 330.548 27.8027 330.468 27.9883 330.323C28.1739 330.178 28.3062 329.975 28.3643 329.746C29.5093 323.032 38.5113 269.909 41.2387 263.666C41.9778 261.973 43.0488 260.445 44.3885 259.172C45.7282 257.9 47.3093 256.909 49.0385 256.258C51.1966 255.428 53.5236 255.133 55.8206 255.397C58.1176 255.662 60.3164 256.479 62.229 257.778C64.1417 259.078 65.7114 260.821 66.8041 262.858C67.8967 264.896 68.4798 267.168 68.5035 269.48L68.9912 329.103C68.9924 329.242 69.0211 329.38 69.0757 329.508C69.1302 329.637 69.2095 329.753 69.3091 329.851C69.4086 329.948 69.5264 330.025 69.6558 330.077C69.7852 330.129 69.9235 330.155 70.063 330.154C71.5423 330.076 77.162 330.289 79.3237 330.255C80.2924 330.259 81.2299 330.598 81.9776 331.214C82.7253 331.83 83.2375 332.685 83.4274 333.635C83.4602 334.075 83.4058 334.518 83.2673 334.938C83.1288 335.357 82.909 335.745 82.6204 336.08C82.3318 336.415 81.98 336.689 81.5853 336.887C81.1905 337.086 80.7605 337.205 80.3199 337.237C79.9008 337.257 67.6882 336.9 66.5638 336.838C65.0592 336.74 63.5482 336.837 62.0686 337.127C61.0316 337.344 60.094 337.894 59.3984 338.693C59.0242 339.255 58.7441 339.874 58.5694 340.525C57.0993 345.98 57.7748 347.127 56.3138 349.479C56.0437 349.9 55.6803 350.253 55.2517 350.51C54.8232 350.767 54.3411 350.922 53.8429 350.963C53.626 350.952 53.4156 350.885 53.2323 350.769C53.0489 350.652 52.8987 350.491 52.7964 350.299C51.6325 348.244 50.7396 346.047 50.14 343.763C49.6722 341.583 48.659 339.556 47.195 337.873L47.1698 337.853C42.615 334.29 36.0496 343.271 28.4674 349.722C27.8894 350.401 27.0662 350.824 26.1774 350.899C25.6079 350.836 25.0837 350.559 24.7114 350.123C24.3392 349.687 24.1469 349.126 24.1736 348.554C24.1908 348.175 24.3035 347.806 24.5011 347.482ZM26.5392 278.53C27.6086 276.524 28.9666 274.683 30.5673 273.071C30.727 272.904 30.8273 272.688 30.8529 272.458C30.8786 272.228 30.8281 271.996 30.7093 271.798C30.5907 271.6 30.4117 271.445 30.1986 271.356C29.9849 271.269 29.7489 271.253 29.5254 271.31C28.4353 271.554 27.2968 271.463 26.2597 271.048C25.2227 270.632 24.3357 269.913 23.7156 268.983C23.3047 268.366 23.022 267.672 22.8844 266.943C22.6506 265.189 22.9128 263.405 23.6414 261.793C24.3699 260.181 25.5357 258.805 27.0064 257.822C28.7232 256.541 30.6387 255.551 32.6764 254.891C32.8924 254.823 33.0811 254.688 33.2151 254.505C33.349 254.322 33.4212 254.102 33.4212 253.875C33.4212 253.649 33.349 253.428 33.2151 253.245C33.0811 253.063 32.8924 252.928 32.6764 252.86C31.1176 252.198 29.8328 251.022 29.0364 249.527C28.24 248.033 27.9802 246.31 28.3002 244.648C28.9202 240.842 30.9675 237.415 34.0252 235.066C37.2931 232.458 41.2296 231.608 45.134 230.184C52.0701 227.625 58.0803 223.047 62.3892 217.039C63.4829 215.708 64.2653 214.148 64.6792 212.475C67.6722 203.347 70.6835 192.674 79.5779 189.557C81.0975 188.99 82.7219 188.76 84.3392 188.881C85.9565 189.002 87.5283 189.473 88.9463 190.26C90.3443 191.261 91.5007 192.562 92.3304 194.067C93.1602 195.573 93.6424 197.246 93.7416 198.962C94.0363 203.567 94.0363 208.186 93.7416 212.791C89.4597 211.691 85.0131 211.381 80.6199 211.875C53.7169 214.852 42.8669 242.227 38.5113 264.637C38.4449 264.866 34.8473 282.041 33.8031 287.349C32.0894 287.863 30.2532 287.788 28.5865 287.139C25.3072 285.813 24.9591 281.583 26.5301 278.53H26.5392ZM116.765 90.0131C117.074 91.0596 118.368 91.3733 119.238 91.5794C124.991 92.9534 128.369 92.2664 129.356 93.9152C129.444 94.0537 129.502 94.2097 129.525 94.3725C129.548 94.5353 129.535 94.7011 129.488 94.8587C129.299 95.2047 129.016 95.4902 128.672 95.6826C128.327 95.875 127.936 95.9665 127.542 95.9465C124.483 95.8526 119.616 95.2595 119.412 95.2274C118.96 95.1725 118.502 95.2389 118.083 95.4196C117.665 95.6004 117.303 95.8891 117.033 96.2561C116.763 96.6231 116.596 97.0552 116.548 97.5083C116.5 97.9613 116.573 98.4189 116.761 98.8342C117.002 99.2398 117.339 99.5801 117.742 99.8252C118.145 100.07 118.602 100.213 119.074 100.24C121.977 100.591 124.763 101.595 127.221 103.178C127.56 103.387 127.854 103.66 128.086 103.982C128.319 104.304 128.486 104.669 128.577 105.056C128.528 105.409 128.356 105.733 128.092 105.972C126.081 107.735 122.696 105.787 120.29 105.116C116.458 104.048 111.015 103.572 108.304 106.476C107.889 106.914 107.57 107.434 107.367 108.003C107.164 108.571 107.081 109.176 107.124 109.778C107.339 111.487 107.763 113.164 108.386 114.77C108.716 115.824 109.172 117.264 108.505 118.098C108.325 118.337 108.091 118.53 107.821 118.661C107.552 118.791 107.255 118.855 106.955 118.848C106.656 118.84 106.363 118.761 106.1 118.617C105.837 118.473 105.613 118.268 105.446 118.02C102.643 114.615 103.034 112.982 100.529 111.91C99.8761 111.739 99.192 111.726 98.5328 111.871C97.8736 112.016 97.2581 112.315 96.7369 112.744C94.6499 114.44 92.9365 116.551 91.7045 118.942C90.4726 121.333 89.7487 123.953 89.5783 126.637H64.3586C65.4485 118.05 68.6033 109.854 73.5529 102.752C83.9037 87.8902 101.784 80.7683 121.389 83.7179C122.515 83.8804 123.624 84.1598 124.693 84.5468C125.568 84.8125 127.173 85.7582 126.809 86.6078C126.683 86.8918 126.324 87.0658 125.792 87.1254C122.815 87.4002 121.412 86.6445 118.412 87.3544C117.842 87.4901 117.348 87.8451 117.038 88.3424C116.728 88.8397 116.627 89.4392 116.756 90.0108H116.765V90.0131ZM64.1181 128.758H89.3768C88.3967 140.251 103.224 144.788 111.59 136.953C119.241 129.781 130.18 126.419 145.001 126.713C163.014 127.052 174.542 131.654 181.284 141.199C183.567 144.493 185.156 148.217 185.953 152.145C187.121 158.459 187.776 164.855 187.916 171.271C188.511 188.229 188.756 199.69 188.41 231.269C170.525 242.147 160.557 248.16 160.326 248.385C159.817 248.786 159.991 248.018 159.991 279.783L132.589 279.666C132.328 278.979 131.792 277.747 131.568 277.159C132.094 275.863 129.049 261.209 128.703 259.663C137.064 252.024 143.632 242.63 147.939 232.156C155.147 214.888 157.882 196.081 155.89 177.475C155.656 175.742 155.243 174.037 154.658 172.389C154.2 170.662 153.35 169.064 152.175 167.717C151.669 167.087 151.025 166.58 150.293 166.236C149.561 165.893 148.76 165.721 147.951 165.734C147.142 165.747 146.347 165.945 145.627 166.313C144.906 166.68 144.28 167.208 143.794 167.855C142.138 166.159 139.923 165.122 137.56 164.936C135.198 164.751 132.848 165.429 130.947 166.845C130.629 163.101 129.91 156.631 129.275 153.242C129.25 152.188 128.835 151.181 128.111 150.416C127.386 149.65 126.403 149.18 125.352 149.097C124.301 149.015 123.257 149.324 122.421 149.967C121.586 150.609 121.018 151.539 120.828 152.576C120.681 154.942 120.726 157.316 120.96 159.675C122.263 194.927 121.299 187.723 121.309 198.282C121.309 209.045 119.593 217.401 111.196 223.243C108.349 220.259 105.046 217.746 101.411 215.798C101.479 211.271 102.173 171.7 102.176 171.395C102.176 171.163 102.101 170.938 101.96 170.753C101.82 170.568 101.623 170.435 101.399 170.374H101.358C92.9675 169.345 84.9676 166.233 78.0871 161.321C67.7317 153.888 62.783 142.335 64.1181 128.758ZM109.76 297.121C110.28 295.845 108.253 295.241 107.743 296.495C104.77 303.802 102.035 311.203 99.5398 318.686C99.0635 318.722 81.4672 318.686 70.9606 318.686C70.9469 315.709 70.8851 306.004 70.8667 303.411C73.0435 297.641 75.7962 292.105 79.0833 286.887C82.7887 280.264 87.4371 274.214 92.8828 268.928C106.561 255.995 122.683 260.38 128.465 274.926C133.961 288.744 136.462 299.257 133.029 312.102C132.552 313.881 131.552 317.58 131.275 318.686H101.775C104.208 311.414 106.872 304.222 109.765 297.121H109.76ZM153.176 181.183C152.955 181.65 152.609 182.047 152.176 182.33C151.743 182.613 151.241 182.771 150.724 182.786C147.692 182.602 146.998 179.493 146.35 177.915C146.455 175.157 146.067 172.402 145.205 169.781C145.365 169.208 145.712 168.705 146.191 168.352C146.67 167.999 147.253 167.817 147.847 167.834C148.563 167.896 149.253 168.128 149.861 168.512C150.468 168.895 150.975 169.418 151.34 170.037C152.006 171.168 152.512 172.389 152.844 173.66C153.282 174.924 153.596 176.228 153.781 177.553C153.926 178.796 153.717 180.054 153.176 181.183ZM123.491 196.512C123.967 185.024 123.849 173.52 123.138 162.045C122.967 158.065 122.831 154.921 122.854 153.412C122.886 151.184 126.392 150.229 126.976 152.631C127.487 154.875 127.844 157.151 128.041 159.444C128.231 161.317 128.916 167.023 129.003 169.062C129.01 169.269 129.078 169.47 129.198 169.639C129.318 169.808 129.484 169.939 129.677 170.016C129.87 170.092 130.081 170.11 130.284 170.069C130.487 170.027 130.674 169.927 130.821 169.781C131.592 168.873 132.56 168.153 133.651 167.677C134.742 167.201 135.928 166.981 137.118 167.033C138.307 167.085 139.469 167.409 140.514 167.979C141.559 168.55 142.46 169.351 143.148 170.323C143.629 171.713 143.952 173.152 144.112 174.613C144.442 176.527 144.318 178.492 143.757 180.351C143.549 181.051 143.078 181.643 142.444 182.004C141.81 182.365 141.06 182.468 140.352 182.291C136.001 180.887 137.966 175.829 136.12 171.917C135.532 170.671 133.697 171.711 134.27 172.943C134.368 173.152 134.453 173.364 134.529 173.584C133.461 172.86 132.156 172.573 130.883 172.783C129.61 172.993 128.466 173.683 127.686 174.711C125.49 177.825 125.369 181.483 124.984 185.534C124.853 186.908 126.965 186.94 127.095 185.588C127.095 182.524 127.714 179.495 128.916 176.678C129.153 176.163 129.526 175.722 129.993 175.401C130.46 175.08 131.005 174.891 131.571 174.854C132.137 174.817 132.702 174.933 133.207 175.191C133.713 175.448 134.139 175.837 134.442 176.316C136.221 179.644 133.959 184.162 136.074 188.453C136.691 189.704 138.513 188.623 137.927 187.441C137.329 185.965 137.072 184.373 137.174 182.783C137.724 183.417 138.424 183.902 139.21 184.196C139.996 184.489 140.843 184.581 141.673 184.463C142.504 184.345 143.292 184.021 143.965 183.52C144.638 183.02 145.176 182.359 145.528 181.597C146.087 182.55 146.874 183.35 147.818 183.926C148.761 184.501 149.833 184.834 150.937 184.895C152.214 184.815 153.409 184.24 154.269 183.292C155.872 212.375 145.679 241.293 128.14 257.339C124.787 243.599 119.845 233.234 112.613 224.793C123.102 217.417 123.308 206.313 123.491 196.512ZM90.5149 268.125C82.9121 275.48 75.2842 288.022 70.8209 297.654C70.8049 295.737 70.5919 272.991 70.6194 271.239C70.7236 268.602 70.3177 265.97 69.424 263.487C67.8583 259.561 64.8309 256.395 60.9786 254.655C57.1262 252.915 52.7492 252.737 48.7682 254.158C46.133 255.097 43.7832 256.697 41.944 258.804C45.7821 242.74 55.7871 216.849 80.5603 214.001C86.5238 213.257 92.5775 214.127 98.0903 216.52C117.507 225.015 125.421 250.306 128.632 270.623C119.385 255.681 103.387 255.669 90.5149 268.125ZM133.567 282.014L133.546 281.961H159.994V318.683H133.505C138.344 305.761 138.353 295.442 133.56 282.014H133.567ZM163.129 249.125C197.744 228.07 223.697 212.317 223.914 212.173C227.198 214.204 278.645 246.031 283.683 249.159C278.144 252.484 226.697 283.376 223.39 285.421C223.388 285.421 167.736 251.861 163.122 249.125H163.129ZM162.116 251.018L222.872 287.574C223.035 287.67 223.22 287.721 223.408 287.721C223.597 287.721 223.782 287.67 223.944 287.574C224.361 287.326 278.803 254.627 284.702 251.034V326.41C280.924 329.002 226.511 366.366 222.957 368.873C222.957 368.873 164.461 328.001 162.116 326.403V251.018Z" fill="black"/>
<path d="M350.404 307.815C341.799 303.744 332.4 301.629 322.881 301.621C313.361 301.612 303.958 303.711 295.346 307.767C295.127 307.863 294.947 308.03 294.835 308.241C294.723 308.452 294.685 308.695 294.728 308.93C294.77 309.166 294.891 309.381 295.072 309.539C295.253 309.697 295.482 309.788 295.722 309.798H349.894C350.126 309.794 350.351 309.714 350.533 309.57C350.715 309.425 350.845 309.226 350.903 309.001C350.961 308.776 350.944 308.538 350.854 308.324C350.764 308.11 350.606 307.931 350.404 307.815ZM344.62 307.682H300.753C314.904 302.436 330.468 302.436 344.62 307.682Z" fill="black"/>
<path d="M436.191 270.428C426.026 280.614 423.763 285.359 417.413 291.686C412.055 297.103 405.571 301.274 398.42 303.903C398.18 303.955 397.965 304.085 397.808 304.273C397.651 304.461 397.562 304.696 397.554 304.941C397.547 305.186 397.622 305.426 397.767 305.623C397.912 305.82 398.12 305.963 398.356 306.028C406.196 309.092 417.777 306.351 426.223 293.891C430.843 286.898 434.745 279.456 437.869 271.678C437.99 271.455 438.025 271.196 437.97 270.948C437.915 270.7 437.773 270.481 437.57 270.329C437.366 270.178 437.115 270.104 436.862 270.122C436.609 270.141 436.371 270.249 436.191 270.428ZM433.546 276.316C431.249 281.358 428.618 286.241 425.671 290.933C421.258 297.997 416.27 302.222 409.97 304.228C407.362 305.058 404.593 305.254 401.894 304.801C417.724 297.901 423.422 287.473 433.546 276.316Z" fill="black"/>
<path d="M260.188 93.9264C270.175 101.941 269.547 101.57 270.085 101.57C270.299 101.588 270.513 101.537 270.697 101.426C270.881 101.316 271.025 101.15 271.11 100.953C271.195 100.755 271.215 100.537 271.169 100.327C271.123 100.117 271.012 99.9276 270.853 99.7842L261.635 92.3875C260.577 91.5379 259.112 93.0631 260.188 93.9264Z" fill="black"/>
<path d="M39.0509 108.482C51.3885 111.911 50.6656 111.817 51.1602 111.605C51.3635 111.537 51.5403 111.406 51.6655 111.232C51.7907 111.057 51.8581 110.848 51.8582 110.633C51.8583 110.419 51.7911 110.21 51.666 110.035C51.541 109.861 51.3643 109.73 51.161 109.661L39.7743 106.497C38.4671 106.133 37.7214 108.113 39.0509 108.482Z" fill="black"/>
<path d="M306.506 85.722C306.714 87.0777 308.766 86.5762 308.567 85.2228L306.662 72.9415C306.456 71.5973 304.401 72.0805 304.601 73.4385L306.506 85.722Z" fill="black"/>
<path d="M344.069 90.6174L350.44 77.6354C351.04 76.4148 349.203 75.366 348.594 76.6049L342.221 89.5869C341.621 90.8097 343.458 91.8563 344.069 90.6174Z" fill="black"/>
<path d="M385.508 136.827C381.413 137.887 377.39 139.346 373.412 140.748C373.179 140.826 372.98 140.981 372.848 141.188C372.715 141.395 372.658 141.641 372.684 141.885C372.711 142.13 372.821 142.357 372.995 142.531C373.169 142.704 373.397 142.813 373.641 142.838C374.113 142.838 377.474 141.407 386.06 138.868C386.321 138.785 386.54 138.604 386.67 138.364C386.801 138.123 386.833 137.841 386.76 137.577C386.687 137.313 386.515 137.088 386.279 136.948C386.043 136.809 385.763 136.766 385.496 136.83H385.508V136.827Z" fill="black"/>
<path d="M236.169 129.5C249.131 134.941 248.105 134.538 248.384 134.538C248.616 134.537 248.841 134.46 249.026 134.32C249.21 134.179 249.343 133.982 249.406 133.759C249.473 133.495 249.438 133.216 249.307 132.977C249.176 132.739 248.959 132.559 248.7 132.474L236.765 127.466C236.499 127.398 236.217 127.435 235.979 127.571C235.741 127.707 235.565 127.931 235.489 128.194C235.412 128.457 235.44 128.739 235.567 128.982C235.694 129.224 235.91 129.408 236.169 129.495V129.502V129.5Z" fill="black"/>
<path d="M444.621 186.772H431.607C431.335 186.785 431.079 186.902 430.891 187.099C430.703 187.296 430.598 187.557 430.598 187.829C430.598 188.101 430.703 188.363 430.891 188.56C431.079 188.757 431.335 188.873 431.607 188.886H444.61C444.825 188.897 445.039 188.841 445.221 188.726C445.404 188.611 445.547 188.444 445.631 188.245C445.718 188.047 445.742 187.827 445.699 187.616C445.656 187.404 445.548 187.211 445.391 187.063C445.286 186.965 445.164 186.889 445.03 186.839C444.895 186.789 444.753 186.766 444.61 186.772H444.621Z" fill="black"/>
<path d="M418.609 156.97H428.087C428.359 156.958 428.616 156.841 428.803 156.644C428.991 156.447 429.096 156.186 429.096 155.914C429.096 155.641 428.991 155.38 428.803 155.183C428.616 154.986 428.359 154.869 428.087 154.857H418.609C418.337 154.869 418.081 154.986 417.893 155.183C417.705 155.38 417.6 155.641 417.6 155.914C417.6 156.186 417.705 156.447 417.893 156.644C418.081 156.841 418.337 156.958 418.609 156.97Z" fill="black"/>
<path d="M445.805 141.08H427.004C426.733 141.093 426.476 141.21 426.288 141.407C426.101 141.603 425.996 141.865 425.996 142.137C425.996 142.409 426.101 142.671 426.288 142.868C426.476 143.065 426.733 143.181 427.004 143.194H445.801C446.073 143.181 446.329 143.065 446.517 142.868C446.705 142.671 446.81 142.409 446.81 142.137C446.81 141.865 446.705 141.603 446.517 141.407C446.329 141.21 446.073 141.093 445.801 141.08H445.805Z" fill="black"/>
<path d="M261.974 254.877C263.425 254.971 264.876 254.693 266.19 254.07C267.505 253.448 268.638 252.501 269.485 251.318C271.734 247.606 268.69 242.717 262.102 242.651C258.99 242.651 185.907 242.598 184.824 242.685C183.346 242.698 181.902 243.127 180.657 243.924C179.412 244.72 178.416 245.851 177.784 247.187C176.435 250.924 180.223 255.392 187.228 254.877C187.973 254.877 260.783 254.859 261.974 254.877ZM263.089 252.713C262.173 252.795 190.178 252.713 185.808 252.763C183.177 252.809 179.941 251.556 179.625 248.912C179.625 245.864 183.15 244.764 186.919 244.764H262.095C264.371 244.79 267.857 245.804 268.12 248.502C268.386 250.927 265.498 252.498 263.098 252.706L263.089 252.713Z" fill="black"/>
<path d="M119.4 268.48L114.875 266.89C113.581 266.432 112.983 268.464 114.275 268.917C115.855 269.602 117.488 270.154 119.157 270.57C119.399 270.543 119.625 270.434 119.798 270.261C119.97 270.089 120.079 269.863 120.107 269.621C120.136 269.379 120.081 269.135 119.953 268.927C119.824 268.72 119.629 268.562 119.4 268.48Z" fill="black"/>
<path d="M355.177 188.201C355.177 188.201 366.144 194.485 366.627 194.751C366.818 194.857 367.036 194.902 367.253 194.879C367.47 194.856 367.674 194.766 367.838 194.622C368.002 194.477 368.117 194.286 368.167 194.073C368.217 193.861 368.2 193.639 368.118 193.436C368.035 193.221 367.884 193.039 367.687 192.919C363.877 190.726 360.06 188.545 356.237 186.374C356.117 186.304 355.985 186.259 355.847 186.241C355.71 186.222 355.57 186.231 355.436 186.267C355.302 186.302 355.176 186.364 355.066 186.448C354.956 186.532 354.863 186.638 354.794 186.758C354.724 186.878 354.679 187.01 354.66 187.148C354.642 187.285 354.651 187.425 354.686 187.559C354.722 187.693 354.784 187.819 354.868 187.929C354.952 188.039 355.057 188.132 355.177 188.201Z" fill="black"/>
<path d="M285.715 334.077C285.448 334.086 285.194 334.197 285.005 334.387C284.816 334.576 284.705 334.83 284.696 335.098V353.439C284.708 353.641 284.777 353.835 284.895 353.999C285.013 354.163 285.175 354.291 285.363 354.366C285.551 354.441 285.756 354.46 285.955 354.423C286.154 354.385 286.337 354.292 286.485 354.153C286.68 353.965 286.796 353.709 286.81 353.439V335.107C286.808 334.967 286.778 334.828 286.722 334.7C286.666 334.571 286.584 334.456 286.482 334.359C286.379 334.263 286.259 334.189 286.127 334.14C285.996 334.091 285.856 334.07 285.715 334.077Z" fill="black"/>
<path d="M199.229 245.618C198.959 245.627 198.703 245.738 198.513 245.93C198.323 246.121 198.214 246.379 198.208 246.649V250.313C198.209 250.593 198.321 250.861 198.519 251.06C198.717 251.258 198.986 251.37 199.266 251.371C199.546 251.369 199.814 251.257 200.012 251.059C200.21 250.861 200.322 250.593 200.324 250.313V246.649C200.322 246.509 200.292 246.37 200.235 246.242C200.179 246.114 200.097 245.998 199.995 245.902C199.893 245.806 199.772 245.731 199.641 245.682C199.509 245.634 199.369 245.612 199.229 245.618Z" fill="black"/>
<path d="M246.12 245.618C245.85 245.626 245.594 245.738 245.404 245.93C245.214 246.121 245.105 246.379 245.099 246.649V250.59C245.117 250.858 245.236 251.11 245.432 251.294C245.629 251.478 245.888 251.58 246.157 251.58C246.426 251.58 246.685 251.478 246.882 251.294C247.078 251.11 247.197 250.858 247.215 250.59V246.633C247.21 246.494 247.179 246.357 247.121 246.231C247.063 246.105 246.981 245.991 246.879 245.897C246.778 245.802 246.658 245.729 246.528 245.681C246.397 245.634 246.259 245.612 246.12 245.618Z" fill="black"/>
<path d="M31.8704 333.474C32.2299 333.474 32.0009 333.543 36.5168 331.058C36.7459 330.912 36.9095 330.683 36.9735 330.419C37.0376 330.155 36.997 329.876 36.8603 329.641C36.7249 329.406 36.5045 329.232 36.2446 329.155C35.9846 329.078 35.705 329.103 35.4634 329.226L31.3254 331.516C31.1331 331.638 30.9853 331.819 30.904 332.031C30.8227 332.244 30.8123 332.477 30.8742 332.696C30.935 332.915 31.0646 333.109 31.2439 333.249C31.4232 333.39 31.6428 333.468 31.8704 333.474Z" fill="black"/>
<path d="M161.964 335.107V353.427C161.962 353.637 162.022 353.843 162.139 354.019C162.255 354.194 162.42 354.331 162.615 354.411C162.809 354.491 163.023 354.512 163.229 354.469C163.435 354.427 163.624 354.324 163.77 354.174C163.869 354.076 163.946 353.959 163.999 353.831C164.053 353.703 164.08 353.566 164.08 353.427V335.086C164.088 334.942 164.066 334.797 164.016 334.661C163.965 334.525 163.888 334.4 163.788 334.295C163.687 334.191 163.567 334.107 163.433 334.051C163.299 333.995 163.156 333.966 163.011 333.968C162.866 333.969 162.722 334 162.59 334.059C162.457 334.118 162.338 334.204 162.24 334.31C162.142 334.417 162.067 334.543 162.019 334.68C161.972 334.817 161.953 334.962 161.964 335.107Z" fill="black"/>
<path d="M222.934 374.266C222.667 374.277 222.414 374.387 222.224 374.576C222.035 374.765 221.924 375.018 221.913 375.285V384.834C221.903 384.979 221.923 385.124 221.972 385.261C222.021 385.398 222.098 385.523 222.197 385.629C222.296 385.735 222.416 385.819 222.549 385.877C222.682 385.934 222.826 385.964 222.971 385.964C223.116 385.964 223.259 385.934 223.392 385.877C223.526 385.819 223.645 385.735 223.745 385.629C223.844 385.523 223.92 385.398 223.969 385.261C224.018 385.124 224.038 384.979 224.029 384.834V375.285C224.025 375.075 223.957 374.87 223.835 374.699C223.712 374.528 223.54 374.399 223.342 374.328C223.211 374.28 223.073 374.259 222.934 374.266Z" fill="black"/>
<path d="M47.7215 334.271C48.6719 334.5 48.6215 333.641 51.3855 331.535C52.4641 330.713 51.3626 328.915 50.2611 329.746C49.1573 330.577 48.12 331.498 47.1628 332.494C47.0354 332.633 46.9468 332.804 46.9059 332.988C46.865 333.172 46.8733 333.364 46.9299 333.544C46.9865 333.724 47.0894 333.886 47.2284 334.013C47.3673 334.141 47.5374 334.23 47.7215 334.271Z" fill="black"/>
<path d="M40.3242 293.697C41.0867 291.482 41.6455 289.202 41.9936 286.886C42.1951 285.542 40.1478 285.029 39.9326 286.392C39.5868 288.673 39.0365 290.919 38.2884 293.101C37.8464 294.409 39.8799 294.984 40.3242 293.697Z" fill="black"/>
<path d="M223.502 346.184C223.777 346.182 224.041 346.073 224.238 345.881C224.435 345.689 224.551 345.428 224.56 345.153V306.139C224.546 305.86 224.424 305.597 224.22 305.406C224.015 305.216 223.745 305.112 223.466 305.117C223.198 305.128 222.945 305.239 222.755 305.428C222.566 305.618 222.455 305.871 222.444 306.139V345.165C222.454 345.439 222.57 345.698 222.768 345.888C222.965 346.078 223.228 346.184 223.502 346.184Z" fill="black"/>
<path d="M108.134 101.52C107.562 101.105 107.078 100.581 106.71 99.977C106.342 99.3734 106.098 98.7027 105.991 98.0038C105.884 97.305 105.918 96.5919 106.089 95.9061C106.261 95.2203 106.567 94.5753 106.989 94.0088C107.809 92.8981 105.989 91.7989 105.194 92.8958C104.624 93.6985 104.219 94.6063 104.002 95.5667C103.786 96.5271 103.762 97.521 103.932 98.4906C104.103 99.4603 104.464 100.386 104.995 101.215C105.526 102.044 106.216 102.76 107.026 103.32C108.155 104.103 109.252 102.312 108.134 101.52Z" fill="black"/>
<path d="M67.3066 117.512L66.3196 123.486C66.0906 124.828 68.1516 125.35 68.3806 123.99L69.3676 118.013C69.5806 116.678 67.5333 116.149 67.3066 117.509V117.512Z" fill="black"/>
<path d="M372.337 215.155C374.92 215.915 377.672 215.877 380.233 215.047C380.49 214.958 380.703 214.775 380.828 214.534C380.954 214.294 380.983 214.014 380.909 213.753C380.833 213.493 380.66 213.271 380.426 213.134C380.192 212.997 379.914 212.955 379.649 213.016C377.455 213.688 375.114 213.723 372.901 213.116C372.638 213.065 372.366 213.114 372.139 213.255C371.911 213.395 371.745 213.617 371.674 213.874C371.603 214.132 371.632 214.407 371.755 214.645C371.878 214.882 372.086 215.064 372.337 215.155Z" fill="black"/>
<path d="M342.175 171.008C346.093 171.645 346.068 171.649 346.221 171.649C347.43 171.649 347.824 169.79 346.535 169.588L342.676 168.963C341.334 168.741 340.814 170.788 342.175 171.008Z" fill="black"/>
<path d="M346.934 179.055C345.505 178.994 344.088 178.757 342.716 178.35C342.455 178.301 342.184 178.352 341.959 178.493C341.733 178.634 341.569 178.855 341.499 179.112C341.428 179.368 341.457 179.642 341.579 179.878C341.701 180.115 341.907 180.297 342.157 180.388C343.7 180.857 345.298 181.12 346.909 181.171C348.308 181.217 348.274 179.115 346.934 179.057V179.055Z" fill="black"/>
<path d="M325.227 239.703C323.583 241.44 322.143 243.361 320.938 245.428C320.85 245.59 320.805 245.771 320.808 245.955C320.811 246.139 320.862 246.319 320.956 246.477C321.05 246.635 321.184 246.766 321.343 246.857C321.503 246.947 321.684 246.995 321.868 246.995C323.114 246.995 322.809 245.431 326.739 241.192C327.666 240.18 326.162 238.693 325.227 239.703Z" fill="black"/>
<path d="M48.1993 131.213L41.4972 137.916C41.3139 138.117 41.2152 138.381 41.2215 138.653C41.2279 138.925 41.3387 139.184 41.5311 139.376C41.7235 139.569 41.9826 139.679 42.2546 139.686C42.5266 139.692 42.7906 139.593 42.9917 139.41L49.6939 132.708C49.8771 132.507 49.9759 132.243 49.9695 131.971C49.9632 131.699 49.8523 131.44 49.6599 131.247C49.4675 131.055 49.2084 130.944 48.9364 130.938C48.6644 130.931 48.4004 131.03 48.1993 131.213Z" fill="black"/>
<path d="M40.2044 161.68L53.4986 148.386C53.6818 148.185 53.7805 147.921 53.7742 147.649C53.7679 147.377 53.657 147.117 53.4646 146.925C53.2722 146.733 53.0131 146.622 52.7411 146.615C52.4691 146.609 52.2051 146.708 52.004 146.891L38.713 160.182C38.5298 160.383 38.4311 160.647 38.4374 160.919C38.4437 161.191 38.5546 161.45 38.747 161.643C38.9394 161.835 39.1985 161.946 39.4705 161.952C39.7425 161.959 40.0065 161.86 40.2076 161.677L40.2044 161.68Z" fill="black"/>
</svg>
