<svg width="62" height="62" viewBox="0 0 62 62" fill="none" xmlns="http://www.w3.org/2000/svg">
<rect width="62" height="62" rx="31" fill="#3342F3"/>
<path d="M31.0001 27.8758C29.2798 27.8758 27.8759 29.2797 27.8759 31C27.8759 32.7203 29.2798 34.1242 31.0001 34.1242C32.7204 34.1242 34.1243 32.7203 34.1243 31C34.1243 29.2797 32.7204 27.8758 31.0001 27.8758ZM40.3704 31C40.3704 29.7063 40.3821 28.4242 40.3095 27.1328C40.2368 25.6328 39.8946 24.3016 38.7978 23.2047C37.6985 22.1055 36.3696 21.7656 34.8696 21.693C33.5759 21.6203 32.2939 21.632 31.0025 21.632C29.7087 21.632 28.4267 21.6203 27.1353 21.693C25.6353 21.7656 24.304 22.1078 23.2071 23.2047C22.1079 24.3039 21.7681 25.6328 21.6954 27.1328C21.6228 28.4266 21.6345 29.7086 21.6345 31C21.6345 32.2914 21.6228 33.5758 21.6954 34.8672C21.7681 36.3672 22.1103 37.6985 23.2071 38.7953C24.3064 39.8945 25.6353 40.2344 27.1353 40.307C28.429 40.3797 29.711 40.368 31.0025 40.368C32.2962 40.368 33.5782 40.3797 34.8696 40.307C36.3696 40.2344 37.7009 39.8922 38.7978 38.7953C39.897 37.6961 40.2368 36.3672 40.3095 34.8672C40.3845 33.5758 40.3704 32.2938 40.3704 31ZM31.0001 35.807C28.34 35.807 26.1931 33.6602 26.1931 31C26.1931 28.3399 28.34 26.193 31.0001 26.193C33.6603 26.193 35.8071 28.3399 35.8071 31C35.8071 33.6602 33.6603 35.807 31.0001 35.807ZM36.004 27.1188C35.3829 27.1188 34.8814 26.6172 34.8814 25.9961C34.8814 25.375 35.3829 24.8735 36.004 24.8735C36.6251 24.8735 37.1267 25.375 37.1267 25.9961C37.1269 26.1436 37.0979 26.2897 37.0416 26.4259C36.9852 26.5622 36.9026 26.6861 36.7983 26.7904C36.694 26.8946 36.5701 26.9773 36.4339 27.0337C36.2976 27.09 36.1515 27.1189 36.004 27.1188Z" fill="white"/>
</svg>
