<svg width="62" height="62" viewBox="0 0 62 62" fill="none" xmlns="http://www.w3.org/2000/svg">
<rect width="62" height="62" rx="31" fill="#3342F3"/>
<path d="M39.625 21.625H22.375C21.9602 21.625 21.625 21.9602 21.625 22.375V39.625C21.625 40.0398 21.9602 40.375 22.375 40.375H39.625C40.0398 40.375 40.375 40.0398 40.375 39.625V22.375C40.375 21.9602 40.0398 21.625 39.625 21.625ZM27.1867 37.6023H24.4047V28.6539H27.1867V37.6023ZM25.7969 27.4305C25.478 27.4305 25.1662 27.3359 24.901 27.1587C24.6358 26.9815 24.4292 26.7297 24.3071 26.435C24.1851 26.1404 24.1531 25.8162 24.2154 25.5034C24.2776 25.1906 24.4312 24.9033 24.6567 24.6778C24.8822 24.4522 25.1695 24.2987 25.4823 24.2365C25.7951 24.1742 26.1193 24.2062 26.414 24.3282C26.7086 24.4503 26.9604 24.6569 27.1376 24.9221C27.3148 25.1873 27.4094 25.499 27.4094 25.818C27.407 26.7086 26.6852 27.4305 25.7969 27.4305ZM37.6023 37.6023H34.8227V33.25C34.8227 32.2117 34.8039 30.8781 33.3766 30.8781C31.9305 30.8781 31.7078 32.0078 31.7078 33.175V37.6023H28.9305V28.6539H31.5977V29.8773H31.6352C32.0055 29.1742 32.9125 28.4312 34.2672 28.4312C37.0844 28.4312 37.6023 30.2852 37.6023 32.6945V37.6023Z" fill="white"/>
</svg>
